<svg width="10" height="10" viewBox="0 0 10 10" fill="none" xmlns="http://www.w3.org/2000/svg">
<path d="M7.22179 4.35173C7.3792 4.35173 7.53197 4.36561 7.68475 4.38876V1.11098C7.68475 0.601725 7.26808 0.185059 6.75882 0.185059H1.20327C0.69401 0.185059 0.277344 0.601725 0.277344 1.11098V8.51839C0.277344 9.02765 0.69401 9.44432 1.20327 9.44432H4.56438C4.22526 8.95872 4.02581 8.38941 3.98774 7.79834C3.94966 7.20728 4.07441 6.61709 4.34842 6.09199C4.62242 5.56689 5.03519 5.12699 5.54181 4.82015C6.04843 4.51332 6.6295 4.3513 7.22179 4.35173ZM2.1292 4.35173V1.11098H4.44401V4.35173L3.2866 3.65728L2.1292 4.35173Z" fill="#FFD25D"/>
<path d="M7.22204 5.27783C5.94426 5.27783 4.90723 6.31487 4.90723 7.59265C4.90723 8.87042 5.94426 9.90746 7.22204 9.90746C8.49982 9.90746 9.53686 8.87042 9.53686 7.59265C9.53686 6.31487 8.49982 5.27783 7.22204 5.27783ZM6.64334 8.75005V6.43524L8.49519 7.59265L6.64334 8.75005Z" fill="#FFD25D"/>
</svg>
