<svg width="25" height="25" viewBox="0 0 25 25" fill="none" xmlns="http://www.w3.org/2000/svg">
<rect width="25" height="25" rx="5" fill="#FFF9EB"/>
<path d="M14.1663 10.7752V9.7835C14.4872 9.64738 14.8154 9.5453 15.151 9.47725C15.4862 9.40919 15.8386 9.37516 16.208 9.37516C16.4608 9.37516 16.7087 9.39461 16.9518 9.4335C17.1948 9.47238 17.433 9.521 17.6663 9.57933V10.5127C17.433 10.4252 17.1973 10.3596 16.9593 10.3161C16.721 10.2721 16.4705 10.2502 16.208 10.2502C15.8386 10.2502 15.4837 10.2964 15.1434 10.389C14.8031 10.4812 14.4775 10.6099 14.1663 10.7752ZM14.1663 13.9835V12.9918C14.4872 12.8557 14.8154 12.7536 15.151 12.6856C15.4862 12.6175 15.8386 12.5835 16.208 12.5835C16.4608 12.5835 16.7087 12.6029 16.9518 12.6418C17.1948 12.6807 17.433 12.7293 17.6663 12.7877V13.721C17.433 13.6335 17.1973 13.568 16.9593 13.5244C16.721 13.4805 16.4705 13.4585 16.208 13.4585C15.8386 13.4585 15.4837 13.5022 15.1434 13.5897C14.8031 13.6772 14.4775 13.8085 14.1663 13.9835ZM14.1663 12.3793V11.3877C14.4872 11.2516 14.8154 11.1495 15.151 11.0814C15.4862 11.0134 15.8386 10.9793 16.208 10.9793C16.4608 10.9793 16.7087 10.9988 16.9518 11.0377C17.1948 11.0766 17.433 11.1252 17.6663 11.1835V12.1168C17.433 12.0293 17.1973 11.9638 16.9593 11.9202C16.721 11.8763 16.4705 11.8543 16.208 11.8543C15.8386 11.8543 15.4837 11.9006 15.1434 11.9932C14.8031 12.0853 14.4775 12.2141 14.1663 12.3793ZM13.583 14.946C14.0108 14.7418 14.4411 14.5886 14.8739 14.4863C15.3064 14.3844 15.7511 14.3335 16.208 14.3335C16.558 14.3335 16.9008 14.3627 17.2364 14.421C17.5716 14.4793 17.9094 14.5668 18.2497 14.6835V8.9085C17.9288 8.77238 17.596 8.6703 17.251 8.60225C16.9057 8.53419 16.558 8.50016 16.208 8.50016C15.7511 8.50016 15.299 8.5585 14.8518 8.67516C14.4045 8.79183 13.9816 8.96683 13.583 9.20016V14.946ZM12.9997 16.6668C12.533 16.2974 12.0275 16.0106 11.483 15.8064C10.9386 15.6022 10.3747 15.5002 9.79134 15.5002C9.27606 15.5002 8.73648 15.5974 8.17259 15.7918C7.6087 15.9863 7.07884 16.2877 6.58301 16.696V8.23766C7.01079 7.946 7.51401 7.72239 8.09267 7.56683C8.67095 7.41127 9.23717 7.3335 9.79134 7.3335C10.3552 7.3335 10.9071 7.40641 11.4468 7.55225C11.9862 7.69808 12.5038 7.91683 12.9997 8.2085C13.4955 7.91683 14.0133 7.69808 14.5531 7.55225C15.0925 7.40641 15.6441 7.3335 16.208 7.3335C16.7622 7.3335 17.3286 7.41127 17.9073 7.56683C18.4855 7.72239 18.9886 7.946 19.4163 8.23766V16.696C18.9302 16.2877 18.4029 15.9863 17.8343 15.7918C17.2654 15.5974 16.7233 15.5002 16.208 15.5002C15.6247 15.5002 15.0608 15.6022 14.5163 15.8064C13.9719 16.0106 13.4663 16.2974 12.9997 16.6668Z" fill="#FFD25D"/>
</svg>
