<svg width="26" height="26" viewBox="0 0 26 26" fill="none" xmlns="http://www.w3.org/2000/svg">
<rect width="26" height="26" rx="5" fill="#FFF9EB"/>
<path d="M16.1476 11.9088C16.3614 11.9088 16.5688 11.9276 16.7762 11.9591V7.50865C16.7762 6.8172 16.2105 6.25146 15.519 6.25146H7.97593C7.28448 6.25146 6.71875 6.8172 6.71875 7.50865V17.5661C6.71875 18.2576 7.28448 18.8233 7.97593 18.8233H12.5395C12.0791 18.164 11.8083 17.391 11.7566 16.5885C11.7049 15.7859 11.8742 14.9846 12.2463 14.2716C12.6183 13.5587 13.1788 12.9614 13.8666 12.5448C14.5545 12.1282 15.3434 11.9082 16.1476 11.9088ZM9.23312 11.9088V7.50865H12.3761V11.9088L10.8046 10.9659L9.23312 11.9088Z" fill="#FFD25D"/>
<path d="M16.1478 13.166C14.4129 13.166 13.0049 14.5741 13.0049 16.309C13.0049 18.0439 14.4129 19.4519 16.1478 19.4519C17.8828 19.4519 19.2908 18.0439 19.2908 16.309C19.2908 14.5741 17.8828 13.166 16.1478 13.166ZM15.3621 17.8805V14.7375L17.8765 16.309L15.3621 17.8805Z" fill="#FFD25D"/>
</svg>
