<svg width="10" height="8" viewBox="0 0 10 8" fill="none" xmlns="http://www.w3.org/2000/svg">
<path d="M5.83366 3.12533V2.41699C6.06282 2.31977 6.29727 2.24685 6.53699 2.19824C6.77644 2.14963 7.0281 2.12533 7.29199 2.12533C7.47255 2.12533 7.64963 2.13921 7.82324 2.16699C7.99685 2.19477 8.16699 2.22949 8.33366 2.27116V2.93783C8.16699 2.87533 7.99866 2.82852 7.82866 2.79741C7.65838 2.76602 7.47949 2.75033 7.29199 2.75033C7.0281 2.75033 6.77463 2.78338 6.53157 2.84949C6.28852 2.91533 6.05588 3.00727 5.83366 3.12533ZM5.83366 5.41699V4.70866C6.06282 4.61144 6.29727 4.53852 6.53699 4.48991C6.77644 4.4413 7.0281 4.41699 7.29199 4.41699C7.47255 4.41699 7.64963 4.43088 7.82324 4.45866C7.99685 4.48644 8.16699 4.52116 8.33366 4.56283V5.22949C8.16699 5.16699 7.99866 5.12019 7.82866 5.08908C7.65838 5.05769 7.47949 5.04199 7.29199 5.04199C7.0281 5.04199 6.77463 5.07324 6.53157 5.13574C6.28852 5.19824 6.05588 5.29199 5.83366 5.41699ZM5.83366 4.27116V3.56283C6.06282 3.4656 6.29727 3.39269 6.53699 3.34408C6.77644 3.29546 7.0281 3.27116 7.29199 3.27116C7.47255 3.27116 7.64963 3.28505 7.82324 3.31283C7.99685 3.3406 8.16699 3.37533 8.33366 3.41699V4.08366C8.16699 4.02116 7.99866 3.97435 7.82866 3.94324C7.65838 3.91185 7.47949 3.89616 7.29199 3.89616C7.0281 3.89616 6.77463 3.92921 6.53157 3.99533C6.28852 4.06116 6.05588 4.1531 5.83366 4.27116ZM5.41699 6.10449C5.72255 5.95866 6.02991 5.84921 6.33907 5.77616C6.64796 5.70338 6.9656 5.66699 7.29199 5.66699C7.54199 5.66699 7.78685 5.68782 8.02657 5.72949C8.26602 5.77116 8.50727 5.83366 8.75032 5.91699V1.79199C8.52116 1.69477 8.28338 1.62185 8.03699 1.57324C7.79032 1.52463 7.54199 1.50033 7.29199 1.50033C6.9656 1.50033 6.64269 1.54199 6.32324 1.62533C6.0038 1.70866 5.70171 1.83366 5.41699 2.00033V6.10449ZM5.00032 7.33366C4.66699 7.06977 4.30588 6.86491 3.91699 6.71907C3.5281 6.57324 3.12532 6.50033 2.70866 6.50033C2.3406 6.50033 1.95519 6.56977 1.55241 6.70866C1.14963 6.84755 0.771159 7.06282 0.416992 7.35449V1.31283C0.722548 1.10449 1.08199 0.94477 1.49533 0.833659C1.90838 0.722548 2.31283 0.666992 2.70866 0.666992C3.11144 0.666992 3.5056 0.719076 3.89116 0.823242C4.27644 0.927409 4.64616 1.08366 5.00032 1.29199C5.35449 1.08366 5.72435 0.927409 6.10991 0.823242C6.49519 0.719076 6.88921 0.666992 7.29199 0.666992C7.68782 0.666992 8.09241 0.722548 8.50574 0.833659C8.9188 0.94477 9.2781 1.10449 9.58366 1.31283V7.35449C9.23643 7.06282 8.85977 6.84755 8.45366 6.70866C8.04727 6.56977 7.66005 6.50033 7.29199 6.50033C6.87532 6.50033 6.47255 6.57324 6.08366 6.71907C5.69477 6.86491 5.33366 7.06977 5.00032 7.33366Z" fill="#FFD25D"/>
</svg>
