<svg width="42" height="50" viewBox="0 0 42 50" fill="none" xmlns="http://www.w3.org/2000/svg">
<path d="M41.4349 37.5743C41.4349 39.0724 40.2214 40.2895 38.7272 40.3001H38.7097C37.2066 40.3001 35.9833 39.0767 35.9833 37.5737C35.9833 36.0719 37.2067 34.8479 38.7097 34.8479V34.8498C40.2108 34.8498 41.435 36.072 41.435 37.5745L41.4349 37.5743ZM35.0618 28.8771L36.0313 28.767L37.8064 28.5644V33.1311C35.7386 33.5508 34.1768 35.3827 34.1768 37.5732C34.1768 39.7637 35.7386 41.5963 37.8064 42.0153V48.1538L21.6197 49.9995V30.4101L35.0618 28.8771ZM10.5631 10.154C10.5631 4.55532 15.1171 0 20.7171 0C26.3171 0 30.8705 4.55532 30.8705 10.154C30.8705 15.7527 26.3158 20.308 20.7171 20.308C15.1184 20.308 10.5631 15.7527 10.5631 10.154ZM15.9341 23.9045H25.5008C28.4512 23.9045 31.2445 25.1392 33.2329 27.2677L20.7171 28.6938L8.20385 27.2677C10.1897 25.1392 12.9825 23.9045 15.9341 23.9045ZM3.62658 28.5644L19.815 30.409V50L3.62819 48.1554V42.0169C5.69537 41.5972 7.2572 39.7658 7.2572 37.5748C7.2572 35.3843 5.69663 33.553 3.62819 33.1333V28.5649L3.62658 28.5644ZM2.72465 34.8499C4.22642 34.8499 5.44929 36.0727 5.44929 37.5745C5.44929 39.0781 4.22648 40.3022 2.72465 40.3022C1.22287 40.3022 9.59081e-07 39.0788 9.59081e-07 37.5758C-0.00125008 36.0721 1.22156 34.85 2.72465 34.85V34.8499Z" fill="#FFD25D"/>
</svg>
