<svg width="32" height="32" viewBox="0 0 32 32" fill="none" xmlns="http://www.w3.org/2000/svg">
<path d="M21.3515 14.3994C21.4388 14.4865 21.508 14.59 21.5553 14.7039C21.6026 14.8178 21.6269 14.9399 21.6269 15.0632C21.6269 15.1865 21.6026 15.3086 21.5553 15.4225C21.508 15.5364 21.4388 15.6399 21.3515 15.7269L15.7265 21.3519C15.6394 21.4393 15.5359 21.5085 15.422 21.5558C15.3081 21.603 15.186 21.6274 15.0627 21.6274C14.9394 21.6274 14.8173 21.603 14.7034 21.5558C14.5895 21.5085 14.486 21.4393 14.399 21.3519L11.5865 18.5394C11.4993 18.4523 11.4301 18.3488 11.383 18.2349C11.3358 18.121 11.3115 17.999 11.3115 17.8757C11.3115 17.7524 11.3358 17.6304 11.383 17.5165C11.4301 17.4026 11.4993 17.2991 11.5865 17.2119C11.7625 17.0359 12.0013 16.937 12.2502 16.937C12.3735 16.937 12.4955 16.9613 12.6094 17.0085C12.7233 17.0556 12.8268 17.1248 12.914 17.2119L15.0627 19.3626L20.024 14.3994C20.111 14.3121 20.2145 14.2429 20.3284 14.1956C20.4423 14.1484 20.5644 14.124 20.6877 14.124C20.811 14.124 20.9331 14.1484 21.047 14.1956C21.1609 14.2429 21.2644 14.3121 21.3515 14.3994Z" fill="#666666" stroke="#666666" stroke-width="0.4"/>
<path d="M7.5625 1C7.81114 1 8.0496 1.09877 8.22541 1.27459C8.40123 1.4504 8.5 1.68886 8.5 1.9375V2.875H23.5V1.9375C23.5 1.68886 23.5988 1.4504 23.7746 1.27459C23.9504 1.09877 24.1889 1 24.4375 1C24.6861 1 24.9246 1.09877 25.1004 1.27459C25.2762 1.4504 25.375 1.68886 25.375 1.9375V2.875H27.25C28.2446 2.875 29.1984 3.27009 29.9016 3.97335C30.6049 4.67661 31 5.63044 31 6.625V27.25C31 28.2446 30.6049 29.1984 29.9016 29.9016C29.1984 30.6049 28.2446 31 27.25 31H4.75C3.75544 31 2.80161 30.6049 2.09835 29.9016C1.39509 29.1984 1 28.2446 1 27.25V6.625C1 5.63044 1.39509 4.67661 2.09835 3.97335C2.80161 3.27009 3.75544 2.875 4.75 2.875H6.625V1.9375C6.625 1.68886 6.72377 1.4504 6.89959 1.27459C7.0754 1.09877 7.31386 1 7.5625 1V1ZM2.875 8.5V27.25C2.875 27.7473 3.07254 28.2242 3.42417 28.5758C3.77581 28.9275 4.25272 29.125 4.75 29.125H27.25C27.7473 29.125 28.2242 28.9275 28.5758 28.5758C28.9275 28.2242 29.125 27.7473 29.125 27.25V8.5H2.875Z" fill="#666666" stroke="#666666" stroke-width="0.4"/>
</svg>
