<svg width="50" height="42" viewBox="0 0 50 42" fill="none" xmlns="http://www.w3.org/2000/svg">
<path d="M47.9167 0.166504H2.08333C1.5308 0.166504 1.0009 0.385997 0.610194 0.776698C0.219493 1.1674 0 1.6973 0 2.24984L0 39.7498C0 40.3024 0.219493 40.8323 0.610194 41.223C1.0009 41.6137 1.5308 41.8332 2.08333 41.8332H47.9167C48.4692 41.8332 48.9991 41.6137 49.3898 41.223C49.7805 40.8323 50 40.3024 50 39.7498V2.24984C50 1.6973 49.7805 1.1674 49.3898 0.776698C48.9991 0.385997 48.4692 0.166504 47.9167 0.166504ZM45.8333 37.6665H41.6667V35.5832H31.25V37.6665H4.16667V4.33317H45.8333V37.6665ZM21.4375 16.229C21.4375 15.2842 21.8128 14.378 22.4809 13.7099C23.149 13.0418 24.0552 12.6665 25 12.6665C26.9792 12.6665 28.5625 14.2707 28.5625 16.229C28.5625 18.2082 26.9792 19.8123 25 19.8123C23.0208 19.8123 21.4375 18.2082 21.4375 16.229ZM11.8958 19.5207C11.8958 18.0415 13.1042 16.8332 14.5833 16.8332C15.2961 16.8332 15.9797 17.1163 16.4837 17.6203C16.9877 18.1243 17.2708 18.8079 17.2708 19.5207C17.2708 20.9998 16.0625 22.1873 14.5833 22.1873C13.1042 22.1873 11.8958 20.9998 11.8958 19.5207ZM32.7292 19.5207C32.7292 18.8079 33.0123 18.1243 33.5163 17.6203C34.0203 17.1163 34.7039 16.8332 35.4167 16.8332C36.1294 16.8332 36.813 17.1163 37.317 17.6203C37.821 18.1243 38.1042 18.8079 38.1042 19.5207C38.1042 20.9998 36.8958 22.1873 35.4167 22.1873C33.9375 22.1873 32.7292 20.9998 32.7292 19.5207ZM41.6667 27.5415V29.3332H8.33333V27.5415C8.33333 25.5832 11.5625 23.979 14.5833 23.979C15.7292 23.979 16.8958 24.2082 17.9167 24.604C19.4792 23.1665 22.2917 22.1873 25 22.1873C27.7083 22.1873 30.5208 23.1665 32.0833 24.604C33.1042 24.2082 34.2708 23.979 35.4167 23.979C38.4375 23.979 41.6667 25.5832 41.6667 27.5415Z" fill="#FFD25D"/>
</svg>
