<svg width="50" height="42" viewBox="0 0 50 42" fill="none" xmlns="http://www.w3.org/2000/svg">
<path d="M8.92829 0.829102C6.79709 0.829102 4.75317 1.67572 3.24618 3.18271C1.7392 4.6897 0.892578 6.73361 0.892578 8.86482V9.67241L24.9997 22.6541L49.1069 9.67642V8.86482C49.1069 6.73361 48.2602 4.6897 46.7533 3.18271C45.2463 1.67572 43.2024 0.829102 41.0711 0.829102H8.92829ZM49.1069 14.2367L25.952 26.7041C25.6593 26.8616 25.3321 26.9441 24.9997 26.9441C24.6673 26.9441 24.3402 26.8616 24.0475 26.7041L0.892578 14.2367V32.972C0.892578 35.1032 1.7392 37.1471 3.24618 38.6541C4.75317 40.1611 6.79709 41.0077 8.92829 41.0077H41.0711C43.2024 41.0077 45.2463 40.1611 46.7533 38.6541C48.2602 37.1471 49.1069 35.1032 49.1069 32.972V14.2367Z" fill="#FFD25D"/>
</svg>
