<svg width="32" height="30" viewBox="0 0 32 30" fill="none" xmlns="http://www.w3.org/2000/svg">
<path d="M27.25 2.875C27.7473 2.875 28.2242 3.07254 28.5758 3.42418C28.9275 3.77581 29.125 4.25272 29.125 4.75V19.75C29.125 20.2473 28.9275 20.7242 28.5758 21.0758C28.2242 21.4275 27.7473 21.625 27.25 21.625H9.27625C8.28177 21.6252 7.3281 22.0204 6.625 22.7238L2.875 26.4738V4.75C2.875 4.25272 3.07254 3.77581 3.42417 3.42418C3.77581 3.07254 4.25272 2.875 4.75 2.875H27.25ZM4.75 1C3.75544 1 2.80161 1.39509 2.09835 2.09835C1.39509 2.80161 1 3.75544 1 4.75L1 28.7369C1.00004 28.9224 1.05511 29.1037 1.15824 29.2579C1.26138 29.4121 1.40794 29.5322 1.57937 29.6031C1.75081 29.6739 1.93941 29.6924 2.12132 29.656C2.30322 29.6196 2.47024 29.5301 2.60125 29.3988L7.95062 24.0494C8.30217 23.6977 8.77901 23.5001 9.27625 23.5H27.25C28.2446 23.5 29.1984 23.1049 29.9016 22.4017C30.6049 21.6984 31 20.7446 31 19.75V4.75C31 3.75544 30.6049 2.80161 29.9016 2.09835C29.1984 1.39509 28.2446 1 27.25 1H4.75Z" fill="#666666" stroke="#666666" stroke-width="0.6"/>
<path d="M10.375 12.25C10.375 12.7473 10.1775 13.2242 9.82582 13.5758C9.47419 13.9275 8.99728 14.125 8.5 14.125C8.00272 14.125 7.52581 13.9275 7.17417 13.5758C6.82254 13.2242 6.625 12.7473 6.625 12.25C6.625 11.7527 6.82254 11.2758 7.17417 10.9242C7.52581 10.5725 8.00272 10.375 8.5 10.375C8.99728 10.375 9.47419 10.5725 9.82582 10.9242C10.1775 11.2758 10.375 11.7527 10.375 12.25ZM17.875 12.25C17.875 12.7473 17.6775 13.2242 17.3258 13.5758C16.9742 13.9275 16.4973 14.125 16 14.125C15.5027 14.125 15.0258 13.9275 14.6742 13.5758C14.3225 13.2242 14.125 12.7473 14.125 12.25C14.125 11.7527 14.3225 11.2758 14.6742 10.9242C15.0258 10.5725 15.5027 10.375 16 10.375C16.4973 10.375 16.9742 10.5725 17.3258 10.9242C17.6775 11.2758 17.875 11.7527 17.875 12.25ZM25.375 12.25C25.375 12.7473 25.1775 13.2242 24.8258 13.5758C24.4742 13.9275 23.9973 14.125 23.5 14.125C23.0027 14.125 22.5258 13.9275 22.1742 13.5758C21.8225 13.2242 21.625 12.7473 21.625 12.25C21.625 11.7527 21.8225 11.2758 22.1742 10.9242C22.5258 10.5725 23.0027 10.375 23.5 10.375C23.9973 10.375 24.4742 10.5725 24.8258 10.9242C25.1775 11.2758 25.375 11.7527 25.375 12.25Z" fill="#666666"/>
</svg>
