<svg width="50" height="50" viewBox="0 0 50 50" fill="none" xmlns="http://www.w3.org/2000/svg">
<path d="M26.5625 4.6875C26.5625 3.4443 27.0564 2.25201 27.9354 1.37294C28.8145 0.49386 30.0068 0 31.25 0L43.75 0C45.4076 0 46.9973 0.65848 48.1694 1.83058C49.3415 3.00269 50 4.5924 50 6.25V43.75C50 45.4076 49.3415 46.9973 48.1694 48.1694C46.9973 49.3415 45.4076 50 43.75 50H6.25C4.5924 50 3.00269 49.3415 1.83058 48.1694C0.65848 46.9973 0 45.4076 0 43.75V6.25C0 4.5924 0.65848 3.00269 1.83058 1.83058C3.00269 0.65848 4.5924 0 6.25 0L25 0C24.0187 1.30625 23.4375 2.92812 23.4375 4.6875V29.0406L15.1688 20.7687C15.0235 20.6235 14.851 20.5082 14.6612 20.4296C14.4714 20.351 14.268 20.3105 14.0625 20.3105C13.857 20.3105 13.6536 20.351 13.4638 20.4296C13.274 20.5082 13.1015 20.6235 12.9562 20.7687C12.811 20.914 12.6957 21.0865 12.6171 21.2763C12.5385 21.4661 12.498 21.6695 12.498 21.875C12.498 22.0805 12.5385 22.2839 12.6171 22.4737C12.6957 22.6635 12.811 22.836 12.9562 22.9813L23.8937 33.9188C24.0389 34.0643 24.2113 34.1797 24.4011 34.2585C24.591 34.3372 24.7945 34.3778 25 34.3778C25.2055 34.3778 25.409 34.3372 25.5989 34.2585C25.7887 34.1797 25.9611 34.0643 26.1063 33.9188L37.0438 22.9813C37.3371 22.6879 37.502 22.2899 37.502 21.875C37.502 21.4601 37.3371 21.0621 37.0438 20.7687C36.7504 20.4754 36.3524 20.3105 35.9375 20.3105C35.5226 20.3105 35.1246 20.4754 34.8312 20.7687L26.5625 29.0406V4.6875Z" fill="#FFD25D"/>
</svg>
