<svg width="30" height="30" viewBox="0 0 30 30" fill="none" xmlns="http://www.w3.org/2000/svg">
<path d="M20.2703 17.4324C20.2703 17.1099 20.3984 16.8005 20.6265 16.5724C20.8546 16.3444 21.1639 16.2162 21.4865 16.2162H24.7297C25.0523 16.2162 25.3616 16.3444 25.5897 16.5724C25.8178 16.8005 25.9459 17.1099 25.9459 17.4324C25.9459 17.755 25.8178 18.0643 25.5897 18.2924C25.3616 18.5205 25.0523 18.6486 24.7297 18.6486H21.4865C21.1639 18.6486 20.8546 18.5205 20.6265 18.2924C20.3984 18.0643 20.2703 17.755 20.2703 17.4324ZM0 3.24324H0.0227026C0.122421 2.35133 0.547363 1.52746 1.21629 0.929143C1.88521 0.330822 2.75118 2.71145e-05 3.64865 0H22.2973C22.7764 0 23.2509 0.0943751 23.6936 0.277737C24.1362 0.461099 24.5385 0.729856 24.8773 1.06866C25.2161 1.40747 25.4848 1.8097 25.6682 2.25237C25.8516 2.69505 25.9459 3.1695 25.9459 3.64865V5.00595C27.1003 5.28001 28.1284 5.93544 28.8641 6.86622C29.5998 7.797 30 8.94872 30 10.1351V23.9189C30 25.3167 29.4447 26.6572 28.4564 27.6456C27.468 28.6339 26.1275 29.1892 24.7297 29.1892H5.27027C3.87251 29.1892 2.53199 28.6339 1.54363 27.6456C0.555259 26.6572 0 25.3167 0 23.9189V3.24324ZM24.7297 7.2973H2.43243V23.9189C2.43243 25.4854 3.70378 26.7568 5.27027 26.7568H24.7297C25.4824 26.7568 26.2042 26.4578 26.7364 25.9256C27.2686 25.3934 27.5676 24.6716 27.5676 23.9189V10.1351C27.5676 9.38249 27.2686 8.66068 26.7364 8.12848C26.2042 7.59628 25.4824 7.2973 24.7297 7.2973ZM23.5135 4.86486V3.64865C23.5135 3.32609 23.3854 3.01674 23.1573 2.78865C22.9292 2.56057 22.6199 2.43243 22.2973 2.43243H3.64865C3.32609 2.43243 3.01674 2.56057 2.78865 2.78865C2.56057 3.01674 2.43243 3.32609 2.43243 3.64865C2.43243 3.97121 2.56057 4.28056 2.78865 4.50864C3.01674 4.73673 3.32609 4.86486 3.64865 4.86486H23.5135Z" fill="#666666"/>
</svg>
