<svg width="26" height="27" viewBox="0 0 26 27" fill="none" xmlns="http://www.w3.org/2000/svg">
<rect y="0.5" width="26" height="26" rx="5" fill="#FFF9EB"/>
<g clip-path="url(#clip0_2_14847)">
<path d="M10.55 15.7C10.4978 15.7 10.4455 15.7077 10.3956 15.7238C10.1121 15.8159 9.81394 15.875 9.50004 15.875C9.18613 15.875 8.88797 15.8159 8.60425 15.7238C8.55438 15.7077 8.50232 15.7 8.45004 15.7C7.09247 15.7 5.99282 16.8042 6.00004 18.1636C6.0031 18.738 6.47538 19.2 7.05004 19.2H11.95C12.5247 19.2 12.997 18.738 13 18.1636C13.0073 16.8042 11.9076 15.7 10.55 15.7ZM9.50004 15C10.6598 15 11.6 14.0598 11.6 12.9C11.6 11.7402 10.6598 10.8 9.50004 10.8C8.34022 10.8 7.40004 11.7402 7.40004 12.9C7.40004 14.0598 8.34022 15 9.50004 15ZM18.95 8H10.55C9.971 8 9.50004 8.48672 9.50004 9.08478V10.1C10.0123 10.1 10.4866 10.2483 10.9 10.4894V9.4H18.6V15.7H17.2V14.3H14.4V15.7H12.7323C13.1501 16.0651 13.4568 16.5472 13.6005 17.1H18.95C19.5291 17.1 20 16.6133 20 16.0152V9.08478C20 8.48672 19.5291 8 18.95 8Z" fill="#FFD25D"/>
<path d="M10.55 15.7C10.4978 15.7 10.4455 15.7077 10.3956 15.7238C10.1121 15.8159 9.81394 15.875 9.50004 15.875C9.18613 15.875 8.88797 15.8159 8.60425 15.7238C8.55438 15.7077 8.50232 15.7 8.45004 15.7C7.09247 15.7 5.99282 16.8042 6.00004 18.1636C6.0031 18.738 6.47538 19.2 7.05004 19.2H11.95C12.5247 19.2 12.997 18.738 13 18.1636C13.0073 16.8042 11.9076 15.7 10.55 15.7ZM9.50004 15C10.6598 15 11.6 14.0598 11.6 12.9C11.6 11.7402 10.6598 10.8 9.50004 10.8C8.34022 10.8 7.40004 11.7402 7.40004 12.9C7.40004 14.0598 8.34022 15 9.50004 15ZM18.95 8H10.55C9.971 8 9.50004 8.48672 9.50004 9.08478V10.1C10.0123 10.1 10.4866 10.2483 10.9 10.4894V9.4H18.6V15.7H17.2V14.3H14.4V15.7H12.7323C13.1501 16.0651 13.4568 16.5472 13.6005 17.1H18.95C19.5291 17.1 20 16.6133 20 16.0152V9.08478C20 8.48672 19.5291 8 18.95 8Z" fill="#FFD25D"/>
</g>
<defs>
<clipPath id="clip0_2_14847">
<rect width="14" height="11.2" fill="white" transform="translate(6 8)"/>
</clipPath>
</defs>
</svg>
