<svg width="14" height="14" viewBox="0 0 14 14" fill="none" xmlns="http://www.w3.org/2000/svg">
<path d="M10.1109 6.09261C10.3313 6.09261 10.5452 6.11206 10.759 6.14446V1.55557C10.759 0.842611 10.1757 0.259277 9.46275 0.259277H1.68497C0.972005 0.259277 0.388672 0.842611 0.388672 1.55557V11.9259C0.388672 12.6389 0.972005 13.2222 1.68497 13.2222H6.39052C5.91576 12.5424 5.63653 11.7454 5.58322 10.9179C5.52991 10.0904 5.70457 9.26412 6.08817 8.52898C6.47178 7.79384 7.04966 7.17798 7.75893 6.74841C8.46819 6.31884 9.28168 6.09202 10.1109 6.09261ZM2.98126 6.09261V1.55557H6.22201V6.09261L4.60163 5.12039L2.98126 6.09261Z" fill="#FFD25D"/>
<path d="M10.1109 7.38867C8.32197 7.38867 6.87012 8.84052 6.87012 10.6294C6.87012 12.4183 8.32197 13.8702 10.1109 13.8702C11.8997 13.8702 13.3516 12.4183 13.3516 10.6294C13.3516 8.84052 11.8997 7.38867 10.1109 7.38867ZM9.30067 12.2498V9.00904L11.8933 10.6294L9.30067 12.2498Z" fill="#FFD25D"/>
</svg>
