<svg width="14" height="11" viewBox="0 0 14 11" fill="none" xmlns="http://www.w3.org/2000/svg">
<g clip-path="url(#clip0_192_4762)">
<path d="M8.16683 4.27516V3.2835C8.48766 3.14738 8.81588 3.0453 9.1515 2.97725C9.48672 2.90919 9.83905 2.87516 10.2085 2.87516C10.4613 2.87516 10.7092 2.89461 10.9522 2.9335C11.1953 2.97238 11.4335 3.021 11.6668 3.07933V4.01266C11.4335 3.92516 11.1978 3.85963 10.9598 3.81608C10.7214 3.77213 10.471 3.75016 10.2085 3.75016C9.83905 3.75016 9.48419 3.79644 9.14391 3.889C8.80363 3.98116 8.47794 4.10988 8.16683 4.27516ZM8.16683 7.4835V6.49183C8.48766 6.35572 8.81588 6.25363 9.1515 6.18558C9.48672 6.11752 9.83905 6.0835 10.2085 6.0835C10.4613 6.0835 10.7092 6.10294 10.9522 6.14183C11.1953 6.18072 11.4335 6.22933 11.6668 6.28766V7.221C11.4335 7.1335 11.1978 7.06797 10.9598 7.02441C10.7214 6.98047 10.471 6.9585 10.2085 6.9585C9.83905 6.9585 9.48419 7.00225 9.14391 7.08975C8.80363 7.17725 8.47794 7.3085 8.16683 7.4835ZM8.16683 5.87933V4.88766C8.48766 4.75155 8.81588 4.64947 9.1515 4.58141C9.48672 4.51336 9.83905 4.47933 10.2085 4.47933C10.4613 4.47933 10.7092 4.49877 10.9522 4.53766C11.1953 4.57655 11.4335 4.62516 11.6668 4.6835V5.61683C11.4335 5.52933 11.1978 5.4638 10.9598 5.42025C10.7214 5.3763 10.471 5.35433 10.2085 5.35433C9.83905 5.35433 9.48419 5.40061 9.14391 5.49316C8.80363 5.58533 8.47794 5.71405 8.16683 5.87933ZM7.5835 8.446C8.01127 8.24183 8.44158 8.08861 8.87441 7.98633C9.30686 7.88444 9.75155 7.8335 10.2085 7.8335C10.5585 7.8335 10.9013 7.86266 11.2369 7.921C11.5721 7.97933 11.9099 8.06683 12.2502 8.1835V2.4085C11.9293 2.27238 11.5964 2.1703 11.2515 2.10225C10.9062 2.03419 10.5585 2.00016 10.2085 2.00016C9.75155 2.00016 9.29947 2.0585 8.85225 2.17516C8.40502 2.29183 7.98211 2.46683 7.5835 2.70016V8.446ZM7.00016 10.1668C6.5335 9.79738 6.02794 9.51058 5.4835 9.30641C4.93905 9.10225 4.37516 9.00016 3.79183 9.00016C3.27655 9.00016 2.73697 9.09738 2.17308 9.29183C1.60919 9.48627 1.07933 9.78766 0.583496 10.196V1.73766C1.01127 1.446 1.5145 1.22239 2.09316 1.06683C2.67144 0.911274 3.23766 0.833496 3.79183 0.833496C4.35572 0.833496 4.90755 0.906413 5.44733 1.05225C5.98672 1.19808 6.50433 1.41683 7.00016 1.7085C7.496 1.41683 8.0138 1.19808 8.55358 1.05225C9.09297 0.906413 9.64461 0.833496 10.2085 0.833496C10.7627 0.833496 11.3291 0.911274 11.9077 1.06683C12.486 1.22239 12.9891 1.446 13.4168 1.73766V10.196C12.9307 9.78766 12.4034 9.48627 11.8348 9.29183C11.2659 9.09738 10.7238 9.00016 10.2085 9.00016C9.62516 9.00016 9.06127 9.10225 8.51683 9.30641C7.97238 9.51058 7.46683 9.79738 7.00016 10.1668Z" fill="#FFD25D"/>
</g>
<defs>
<clipPath id="clip0_192_4762">
<rect width="14" height="10" fill="white" transform="translate(0 0.5)"/>
</clipPath>
</defs>
</svg>
