<svg width="164" height="164" viewBox="0 0 164 164" fill="none" xmlns="http://www.w3.org/2000/svg">
<circle cx="82" cy="82" r="82" fill="#FFD25D"/>
<path d="M56.0114 68.7273V92H51.0909V73.3977H50.9545L45.625 76.7386V72.375L51.3864 68.7273H56.0114ZM70.6676 92.5114C68.7131 92.5038 67.0313 92.0227 65.6222 91.0682C64.2206 90.1136 63.1411 88.7311 62.3835 86.9205C61.6335 85.1098 61.2623 82.9318 61.2699 80.3864C61.2699 77.8485 61.6449 75.6856 62.3949 73.8977C63.1525 72.1098 64.232 70.75 65.6335 69.8182C67.0426 68.8788 68.7206 68.4091 70.6676 68.4091C72.6146 68.4091 74.2888 68.8788 75.6903 69.8182C77.0994 70.7576 78.1828 72.1212 78.9403 73.9091C79.6979 75.6894 80.0729 77.8485 80.0653 80.3864C80.0653 82.9394 79.6866 85.1212 78.929 86.9318C78.179 88.7424 77.1032 90.125 75.7017 91.0795C74.3002 92.0341 72.6222 92.5114 70.6676 92.5114ZM70.6676 88.4318C72.0009 88.4318 73.0653 87.7614 73.8608 86.4205C74.6563 85.0795 75.0502 83.0682 75.0426 80.3864C75.0426 78.6212 74.8608 77.1515 74.4972 75.9773C74.1411 74.803 73.6335 73.9205 72.9744 73.3295C72.3229 72.7386 71.554 72.4432 70.6676 72.4432C69.3419 72.4432 68.2813 73.1061 67.4858 74.4318C66.6903 75.7576 66.2888 77.7424 66.2812 80.3864C66.2812 82.1742 66.4593 83.6667 66.8153 84.8636C67.179 86.053 67.6903 86.947 68.3494 87.5455C69.0085 88.1364 69.7812 88.4318 70.6676 88.4318ZM92.6989 92.5114C90.7443 92.5038 89.0625 92.0227 87.6534 91.0682C86.2519 90.1136 85.1723 88.7311 84.4148 86.9205C83.6648 85.1098 83.2936 82.9318 83.3011 80.3864C83.3011 77.8485 83.6761 75.6856 84.4261 73.8977C85.1837 72.1098 86.2633 70.75 87.6648 69.8182C89.0739 68.8788 90.7519 68.4091 92.6989 68.4091C94.6458 68.4091 96.3201 68.8788 97.7216 69.8182C99.1307 70.7576 100.214 72.1212 100.972 73.9091C101.729 75.6894 102.104 77.8485 102.097 80.3864C102.097 82.9394 101.718 85.1212 100.96 86.9318C100.21 88.7424 99.1345 90.125 97.733 91.0795C96.3314 92.0341 94.6534 92.5114 92.6989 92.5114ZM92.6989 88.4318C94.0322 88.4318 95.0966 87.7614 95.892 86.4205C96.6875 85.0795 97.0814 83.0682 97.0739 80.3864C97.0739 78.6212 96.892 77.1515 96.5284 75.9773C96.1723 74.803 95.6648 73.9205 95.0057 73.3295C94.3542 72.7386 93.5852 72.4432 92.6989 72.4432C91.3731 72.4432 90.3125 73.1061 89.517 74.4318C88.7216 75.7576 88.3201 77.7424 88.3125 80.3864C88.3125 82.1742 88.4905 83.6667 88.8466 84.8636C89.2102 86.053 89.7216 86.947 90.3807 87.5455C91.0398 88.1364 91.8125 88.4318 92.6989 88.4318ZM112.56 88.4545V72.3636H116.628V88.4545H112.56ZM106.548 82.4432V78.375H122.639V82.4432H106.548Z" fill="black"/>
<path d="M42.9666 105.364V117H41.6257V105.364H42.9666ZM49.0817 117.182C48.2408 117.182 47.5154 116.996 46.9055 116.625C46.2995 116.25 45.8317 115.727 45.5021 115.057C45.1764 114.383 45.0135 113.598 45.0135 112.705C45.0135 111.811 45.1764 111.023 45.5021 110.341C45.8317 109.655 46.29 109.121 46.8771 108.739C47.468 108.352 48.1574 108.159 48.9453 108.159C49.3999 108.159 49.8487 108.235 50.2919 108.386C50.7351 108.538 51.1385 108.784 51.5021 109.125C51.8658 109.462 52.1555 109.909 52.3714 110.466C52.5874 111.023 52.6953 111.708 52.6953 112.523V113.091H45.968V111.932H51.3317C51.3317 111.439 51.2332 111 51.0362 110.614C50.843 110.227 50.5665 109.922 50.2067 109.699C49.8506 109.475 49.4302 109.364 48.9453 109.364C48.4112 109.364 47.9491 109.496 47.5589 109.761C47.1726 110.023 46.8752 110.364 46.6669 110.784C46.4586 111.205 46.3544 111.655 46.3544 112.136V112.909C46.3544 113.568 46.468 114.127 46.6953 114.585C46.9264 115.04 47.2464 115.386 47.6555 115.625C48.0646 115.86 48.54 115.977 49.0817 115.977C49.4339 115.977 49.7521 115.928 50.0362 115.83C50.3241 115.727 50.5722 115.576 50.7805 115.375C50.9889 115.17 51.1499 114.917 51.2635 114.614L52.5589 114.977C52.4226 115.417 52.1934 115.803 51.8714 116.136C51.5495 116.466 51.1518 116.723 50.6783 116.909C50.2048 117.091 49.6726 117.182 49.0817 117.182ZM58.2805 117.182C57.4624 117.182 56.7578 116.989 56.1669 116.602C55.576 116.216 55.1214 115.684 54.8033 115.006C54.4851 114.328 54.326 113.553 54.326 112.682C54.326 111.795 54.4889 111.013 54.8146 110.335C55.1442 109.653 55.6025 109.121 56.1896 108.739C56.7805 108.352 57.4699 108.159 58.2578 108.159C58.8714 108.159 59.4245 108.273 59.9169 108.5C60.4093 108.727 60.8127 109.045 61.1271 109.455C61.4415 109.864 61.6366 110.341 61.7124 110.886H60.3714C60.2692 110.489 60.0419 110.136 59.6896 109.83C59.3411 109.519 58.8714 109.364 58.2805 109.364C57.7578 109.364 57.2995 109.5 56.9055 109.773C56.5154 110.042 56.2105 110.422 55.9908 110.915C55.7749 111.403 55.6669 111.977 55.6669 112.636C55.6669 113.311 55.773 113.898 55.9851 114.398C56.201 114.898 56.504 115.286 56.8942 115.562C57.2881 115.839 57.7502 115.977 58.2805 115.977C58.629 115.977 58.9453 115.917 59.2294 115.795C59.5135 115.674 59.754 115.5 59.951 115.273C60.148 115.045 60.2881 114.773 60.3714 114.455H61.7124C61.6366 114.97 61.4491 115.434 61.1499 115.847C60.8544 116.256 60.4624 116.581 59.9737 116.824C59.4889 117.062 58.9245 117.182 58.2805 117.182ZM67.468 108.273V109.409H62.9453V108.273H67.468ZM64.2635 106.182H65.6044V114.5C65.6044 114.879 65.6593 115.163 65.7692 115.352C65.8828 115.538 66.0268 115.663 66.201 115.727C66.379 115.788 66.5665 115.818 66.7635 115.818C66.9112 115.818 67.0324 115.811 67.1271 115.795C67.2218 115.777 67.2976 115.761 67.3544 115.75L67.6271 116.955C67.5362 116.989 67.4093 117.023 67.2464 117.057C67.0836 117.095 66.8771 117.114 66.6271 117.114C66.2483 117.114 65.8771 117.032 65.5135 116.869C65.1536 116.706 64.8544 116.458 64.6158 116.125C64.3809 115.792 64.2635 115.371 64.2635 114.864V106.182ZM74.9851 113.432V108.273H76.326V117H74.9851V115.523H74.8942C74.6896 115.966 74.3714 116.343 73.9396 116.653C73.5078 116.96 72.9624 117.114 72.3033 117.114C71.7578 117.114 71.273 116.994 70.8487 116.756C70.4245 116.513 70.0911 116.15 69.8487 115.665C69.6063 115.176 69.4851 114.561 69.4851 113.818V108.273H70.826V113.727C70.826 114.364 71.004 114.871 71.3601 115.25C71.7199 115.629 72.1783 115.818 72.7351 115.818C73.0684 115.818 73.4074 115.733 73.7521 115.562C74.1006 115.392 74.3923 115.131 74.6271 114.778C74.8658 114.426 74.9851 113.977 74.9851 113.432ZM78.782 117V108.273H80.0774V109.591H80.1683C80.3274 109.159 80.6153 108.809 81.032 108.54C81.4486 108.271 81.9183 108.136 82.4411 108.136C82.5395 108.136 82.6626 108.138 82.8104 108.142C82.9581 108.146 83.0698 108.152 83.1456 108.159V109.523C83.1001 109.511 82.996 109.494 82.8331 109.472C82.674 109.445 82.5054 109.432 82.3274 109.432C81.9032 109.432 81.5244 109.521 81.1911 109.699C80.8615 109.873 80.6001 110.116 80.407 110.426C80.2176 110.733 80.1229 111.083 80.1229 111.477V117H78.782ZM88.1286 117.182C87.2876 117.182 86.5623 116.996 85.9524 116.625C85.3464 116.25 84.8786 115.727 84.549 115.057C84.2232 114.383 84.0604 113.598 84.0604 112.705C84.0604 111.811 84.2232 111.023 84.549 110.341C84.8786 109.655 85.3369 109.121 85.924 108.739C86.5149 108.352 87.2043 108.159 87.9922 108.159C88.4467 108.159 88.8956 108.235 89.3388 108.386C89.782 108.538 90.1854 108.784 90.549 109.125C90.9126 109.462 91.2024 109.909 91.4183 110.466C91.6342 111.023 91.7422 111.708 91.7422 112.523V113.091H85.0149V111.932H90.3786C90.3786 111.439 90.2801 111 90.0831 110.614C89.8899 110.227 89.6134 109.922 89.2536 109.699C88.8975 109.475 88.477 109.364 87.9922 109.364C87.4581 109.364 86.996 109.496 86.6058 109.761C86.2195 110.023 85.9221 110.364 85.7138 110.784C85.5054 111.205 85.4013 111.655 85.4013 112.136V112.909C85.4013 113.568 85.5149 114.127 85.7422 114.585C85.9732 115.04 86.2933 115.386 86.7024 115.625C87.1115 115.86 87.5869 115.977 88.1286 115.977C88.4808 115.977 88.799 115.928 89.0831 115.83C89.371 115.727 89.6191 115.576 89.8274 115.375C90.0357 115.17 90.1967 114.917 90.3104 114.614L91.6058 114.977C91.4695 115.417 91.2403 115.803 90.9183 116.136C90.5964 116.466 90.1986 116.723 89.7251 116.909C89.2517 117.091 88.7195 117.182 88.1286 117.182ZM93.782 117V108.273H95.0774V109.591H95.1683C95.3274 109.159 95.6153 108.809 96.032 108.54C96.4486 108.271 96.9183 108.136 97.4411 108.136C97.5395 108.136 97.6626 108.138 97.8104 108.142C97.9581 108.146 98.0698 108.152 98.1456 108.159V109.523C98.1001 109.511 97.996 109.494 97.8331 109.472C97.674 109.445 97.5054 109.432 97.3274 109.432C96.9032 109.432 96.5244 109.521 96.1911 109.699C95.8615 109.873 95.6001 110.116 95.407 110.426C95.2176 110.733 95.1229 111.083 95.1229 111.477V117H93.782ZM105.917 110.227L104.712 110.568C104.637 110.367 104.525 110.172 104.377 109.983C104.233 109.79 104.036 109.631 103.786 109.506C103.536 109.381 103.216 109.318 102.826 109.318C102.292 109.318 101.847 109.441 101.491 109.688C101.138 109.93 100.962 110.239 100.962 110.614C100.962 110.947 101.084 111.21 101.326 111.403C101.568 111.597 101.947 111.758 102.462 111.886L103.758 112.205C104.538 112.394 105.12 112.684 105.502 113.074C105.885 113.46 106.076 113.958 106.076 114.568C106.076 115.068 105.932 115.515 105.644 115.909C105.36 116.303 104.962 116.614 104.451 116.841C103.94 117.068 103.345 117.182 102.667 117.182C101.777 117.182 101.04 116.989 100.457 116.602C99.8733 116.216 99.504 115.652 99.3487 114.909L100.621 114.591C100.743 115.061 100.972 115.413 101.309 115.648C101.65 115.883 102.095 116 102.644 116C103.269 116 103.765 115.867 104.133 115.602C104.504 115.333 104.69 115.011 104.69 114.636C104.69 114.333 104.584 114.08 104.371 113.875C104.159 113.667 103.834 113.511 103.394 113.409L101.94 113.068C101.14 112.879 100.553 112.585 100.178 112.188C99.8071 111.786 99.6214 111.284 99.6214 110.682C99.6214 110.189 99.7597 109.754 100.036 109.375C100.317 108.996 100.697 108.699 101.178 108.483C101.663 108.267 102.212 108.159 102.826 108.159C103.69 108.159 104.368 108.348 104.86 108.727C105.356 109.106 105.709 109.606 105.917 110.227ZM115.89 117.159C115.125 117.159 114.466 117.019 113.913 116.739C113.36 116.458 112.933 116.074 112.634 115.585C112.335 115.097 112.185 114.538 112.185 113.909C112.185 113.424 112.288 112.994 112.492 112.619C112.701 112.241 112.987 111.89 113.35 111.568C113.718 111.242 114.14 110.917 114.617 110.591L116.299 109.341C116.629 109.125 116.892 108.894 117.089 108.648C117.29 108.402 117.39 108.08 117.39 107.682C117.39 107.386 117.259 107.1 116.998 106.824C116.74 106.547 116.401 106.409 115.981 106.409C115.685 106.409 115.424 106.485 115.197 106.636C114.973 106.784 114.797 106.973 114.668 107.205C114.543 107.432 114.481 107.667 114.481 107.909C114.481 108.182 114.555 108.458 114.702 108.739C114.854 109.015 115.045 109.299 115.276 109.591C115.511 109.879 115.754 110.174 116.004 110.477L121.344 117H119.731L115.322 111.682C114.913 111.189 114.541 110.742 114.208 110.341C113.875 109.939 113.61 109.544 113.413 109.153C113.216 108.763 113.117 108.341 113.117 107.886C113.117 107.364 113.233 106.905 113.464 106.511C113.699 106.114 114.026 105.805 114.447 105.585C114.871 105.362 115.367 105.25 115.935 105.25C116.519 105.25 117.021 105.364 117.441 105.591C117.862 105.814 118.185 106.112 118.413 106.483C118.64 106.85 118.754 107.25 118.754 107.682C118.754 108.239 118.615 108.722 118.339 109.131C118.062 109.54 117.685 109.92 117.208 110.273L114.89 112C114.367 112.386 114.013 112.761 113.827 113.125C113.642 113.489 113.549 113.75 113.549 113.909C113.549 114.273 113.644 114.612 113.833 114.926C114.022 115.241 114.29 115.494 114.634 115.688C114.979 115.881 115.382 115.977 115.844 115.977C116.284 115.977 116.712 115.884 117.129 115.699C117.545 115.509 117.922 115.237 118.259 114.881C118.6 114.525 118.869 114.097 119.066 113.597C119.267 113.097 119.367 112.534 119.367 111.909H120.663C120.663 112.682 120.574 113.312 120.396 113.801C120.218 114.29 120.017 114.672 119.793 114.949C119.57 115.225 119.39 115.432 119.254 115.568C119.208 115.625 119.166 115.682 119.129 115.739C119.091 115.795 119.049 115.852 119.004 115.909C118.629 116.33 118.155 116.644 117.583 116.852C117.011 117.057 116.447 117.159 115.89 117.159ZM55.2415 127.273V128.409H50.7188V127.273H55.2415ZM52.0369 125.182H53.3778V133.5C53.3778 133.879 53.4328 134.163 53.5426 134.352C53.6563 134.538 53.8002 134.663 53.9744 134.727C54.1525 134.788 54.34 134.818 54.5369 134.818C54.6847 134.818 54.8059 134.811 54.9006 134.795C54.9953 134.777 55.071 134.761 55.1278 134.75L55.4006 135.955C55.3097 135.989 55.1828 136.023 55.0199 136.057C54.857 136.095 54.6506 136.114 54.4006 136.114C54.0218 136.114 53.6506 136.032 53.2869 135.869C52.9271 135.706 52.6278 135.458 52.3892 135.125C52.1544 134.792 52.0369 134.371 52.0369 133.864V125.182ZM60.8239 136.182C59.983 136.182 59.2576 135.996 58.6477 135.625C58.0417 135.25 57.5739 134.727 57.2443 134.057C56.9186 133.383 56.7557 132.598 56.7557 131.705C56.7557 130.811 56.9186 130.023 57.2443 129.341C57.5739 128.655 58.0322 128.121 58.6193 127.739C59.2102 127.352 59.8996 127.159 60.6875 127.159C61.142 127.159 61.5909 127.235 62.0341 127.386C62.4773 127.538 62.8807 127.784 63.2443 128.125C63.608 128.462 63.8977 128.909 64.1136 129.466C64.3295 130.023 64.4375 130.708 64.4375 131.523V132.091H57.7102V130.932H63.0739C63.0739 130.439 62.9754 130 62.7784 129.614C62.5852 129.227 62.3087 128.922 61.9489 128.699C61.5928 128.475 61.1723 128.364 60.6875 128.364C60.1534 128.364 59.6913 128.496 59.3011 128.761C58.9148 129.023 58.6174 129.364 58.4091 129.784C58.2008 130.205 58.0966 130.655 58.0966 131.136V131.909C58.0966 132.568 58.2102 133.127 58.4375 133.585C58.6686 134.04 58.9886 134.386 59.3977 134.625C59.8068 134.86 60.2822 134.977 60.8239 134.977C61.1761 134.977 61.4943 134.928 61.7784 134.83C62.0663 134.727 62.3144 134.576 62.5227 134.375C62.7311 134.17 62.892 133.917 63.0057 133.614L64.3011 133.977C64.1648 134.417 63.9356 134.803 63.6136 135.136C63.2917 135.466 62.8939 135.723 62.4205 135.909C61.947 136.091 61.4148 136.182 60.8239 136.182ZM69.0455 136.205C68.4924 136.205 67.9905 136.1 67.5398 135.892C67.089 135.68 66.7311 135.375 66.4659 134.977C66.2008 134.576 66.0682 134.091 66.0682 133.523C66.0682 133.023 66.1667 132.617 66.3636 132.307C66.5606 131.992 66.8239 131.746 67.1534 131.568C67.483 131.39 67.8466 131.258 68.2443 131.17C68.6458 131.08 69.0492 131.008 69.4545 130.955C69.9848 130.886 70.4148 130.835 70.7443 130.801C71.0777 130.763 71.3201 130.701 71.4716 130.614C71.6269 130.527 71.7045 130.375 71.7045 130.159V130.114C71.7045 129.553 71.5511 129.117 71.2443 128.807C70.9413 128.496 70.4811 128.341 69.8636 128.341C69.2235 128.341 68.7216 128.481 68.358 128.761C67.9943 129.042 67.7386 129.341 67.5909 129.659L66.3182 129.205C66.5455 128.674 66.8485 128.261 67.2273 127.966C67.6098 127.667 68.0265 127.458 68.4773 127.341C68.9318 127.22 69.3788 127.159 69.8182 127.159C70.0985 127.159 70.4205 127.193 70.7841 127.261C71.1515 127.326 71.5057 127.46 71.8466 127.665C72.1913 127.869 72.4773 128.178 72.7045 128.591C72.9318 129.004 73.0455 129.557 73.0455 130.25V136H71.7045V134.818H71.6364C71.5455 135.008 71.3939 135.21 71.1818 135.426C70.9697 135.642 70.6875 135.826 70.3352 135.977C69.983 136.129 69.553 136.205 69.0455 136.205ZM69.25 135C69.7803 135 70.2273 134.896 70.5909 134.688C70.9583 134.479 71.2348 134.21 71.4205 133.881C71.6098 133.551 71.7045 133.205 71.7045 132.841V131.614C71.6477 131.682 71.5227 131.744 71.3295 131.801C71.1402 131.854 70.9205 131.902 70.6705 131.943C70.4242 131.981 70.1837 132.015 69.9489 132.045C69.7178 132.072 69.5303 132.095 69.3864 132.114C69.0379 132.159 68.7121 132.233 68.4091 132.335C68.1098 132.434 67.8674 132.583 67.6818 132.784C67.5 132.981 67.4091 133.25 67.4091 133.591C67.4091 134.057 67.5814 134.409 67.9261 134.648C68.2746 134.883 68.7159 135 69.25 135ZM79.0384 136.182C78.2202 136.182 77.5156 135.989 76.9247 135.602C76.3338 135.216 75.8793 134.684 75.5611 134.006C75.2429 133.328 75.0838 132.553 75.0838 131.682C75.0838 130.795 75.2467 130.013 75.5724 129.335C75.902 128.653 76.3603 128.121 76.9474 127.739C77.5384 127.352 78.2277 127.159 79.0156 127.159C79.6293 127.159 80.1823 127.273 80.6747 127.5C81.1671 127.727 81.5705 128.045 81.8849 128.455C82.1993 128.864 82.3944 129.341 82.4702 129.886H81.1293C81.027 129.489 80.7997 129.136 80.4474 128.83C80.099 128.519 79.6293 128.364 79.0384 128.364C78.5156 128.364 78.0573 128.5 77.6634 128.773C77.2732 129.042 76.9683 129.422 76.7486 129.915C76.5327 130.403 76.4247 130.977 76.4247 131.636C76.4247 132.311 76.5308 132.898 76.7429 133.398C76.9588 133.898 77.2618 134.286 77.652 134.562C78.0459 134.839 78.508 134.977 79.0384 134.977C79.3868 134.977 79.7031 134.917 79.9872 134.795C80.2713 134.674 80.5118 134.5 80.7088 134.273C80.9058 134.045 81.0459 133.773 81.1293 133.455H82.4702C82.3944 133.97 82.2069 134.434 81.9077 134.847C81.6122 135.256 81.2202 135.581 80.7315 135.824C80.2467 136.062 79.6823 136.182 79.0384 136.182ZM85.7713 130.75V136H84.4304V124.364H85.7713V128.636H85.8849C86.0895 128.186 86.3963 127.828 86.8054 127.562C87.2183 127.294 87.7675 127.159 88.4531 127.159C89.0478 127.159 89.5687 127.278 90.0156 127.517C90.4626 127.752 90.8092 128.114 91.0554 128.602C91.3054 129.087 91.4304 129.705 91.4304 130.455V136H90.0895V130.545C90.0895 129.852 89.9096 129.316 89.5497 128.938C89.1937 128.555 88.6993 128.364 88.0668 128.364C87.6274 128.364 87.2334 128.456 86.8849 128.642C86.5402 128.828 86.2675 129.098 86.0668 129.455C85.8698 129.811 85.7713 130.242 85.7713 130.75ZM97.5426 136.182C96.7017 136.182 95.9763 135.996 95.3665 135.625C94.7604 135.25 94.2926 134.727 93.9631 134.057C93.6373 133.383 93.4744 132.598 93.4744 131.705C93.4744 130.811 93.6373 130.023 93.9631 129.341C94.2926 128.655 94.7509 128.121 95.3381 127.739C95.929 127.352 96.6184 127.159 97.4062 127.159C97.8608 127.159 98.3097 127.235 98.7528 127.386C99.196 127.538 99.5994 127.784 99.9631 128.125C100.327 128.462 100.616 128.909 100.832 129.466C101.048 130.023 101.156 130.708 101.156 131.523V132.091H94.429V130.932H99.7926C99.7926 130.439 99.6941 130 99.4972 129.614C99.304 129.227 99.0275 128.922 98.6676 128.699C98.3116 128.475 97.8911 128.364 97.4062 128.364C96.8722 128.364 96.41 128.496 96.0199 128.761C95.6335 129.023 95.3362 129.364 95.1278 129.784C94.9195 130.205 94.8153 130.655 94.8153 131.136V131.909C94.8153 132.568 94.929 133.127 95.1562 133.585C95.3873 134.04 95.7074 134.386 96.1165 134.625C96.5256 134.86 97.0009 134.977 97.5426 134.977C97.8949 134.977 98.2131 134.928 98.4972 134.83C98.785 134.727 99.0331 134.576 99.2415 134.375C99.4498 134.17 99.6108 133.917 99.7244 133.614L101.02 133.977C100.884 134.417 100.654 134.803 100.332 135.136C100.01 135.466 99.6127 135.723 99.1392 135.909C98.6657 136.091 98.1335 136.182 97.5426 136.182ZM103.196 136V127.273H104.491V128.591H104.582C104.741 128.159 105.029 127.809 105.446 127.54C105.863 127.271 106.332 127.136 106.855 127.136C106.954 127.136 107.077 127.138 107.224 127.142C107.372 127.146 107.484 127.152 107.56 127.159V128.523C107.514 128.511 107.41 128.494 107.247 128.472C107.088 128.445 106.92 128.432 106.741 128.432C106.317 128.432 105.938 128.521 105.605 128.699C105.276 128.873 105.014 129.116 104.821 129.426C104.632 129.733 104.537 130.083 104.537 130.477V136H103.196ZM115.331 129.227L114.126 129.568C114.051 129.367 113.939 129.172 113.791 128.983C113.647 128.79 113.45 128.631 113.2 128.506C112.95 128.381 112.63 128.318 112.24 128.318C111.706 128.318 111.261 128.441 110.905 128.688C110.553 128.93 110.376 129.239 110.376 129.614C110.376 129.947 110.498 130.21 110.74 130.403C110.982 130.597 111.361 130.758 111.876 130.886L113.172 131.205C113.952 131.394 114.534 131.684 114.916 132.074C115.299 132.46 115.49 132.958 115.49 133.568C115.49 134.068 115.346 134.515 115.058 134.909C114.774 135.303 114.376 135.614 113.865 135.841C113.354 136.068 112.759 136.182 112.081 136.182C111.191 136.182 110.454 135.989 109.871 135.602C109.287 135.216 108.918 134.652 108.763 133.909L110.036 133.591C110.157 134.061 110.386 134.413 110.723 134.648C111.064 134.883 111.509 135 112.058 135C112.683 135 113.179 134.867 113.547 134.602C113.918 134.333 114.104 134.011 114.104 133.636C114.104 133.333 113.998 133.08 113.786 132.875C113.573 132.667 113.248 132.511 112.808 132.409L111.354 132.068C110.554 131.879 109.967 131.585 109.592 131.188C109.221 130.786 109.036 130.284 109.036 129.682C109.036 129.189 109.174 128.754 109.45 128.375C109.731 127.996 110.111 127.699 110.592 127.483C111.077 127.267 111.626 127.159 112.24 127.159C113.104 127.159 113.782 127.348 114.274 127.727C114.77 128.106 115.123 128.606 115.331 129.227Z" fill="black"/>
<g clip-path="url(#clip0_2_7410)">
<path d="M76.7501 45.875C76.638 45.875 76.526 45.8918 76.4191 45.9273C75.8116 46.1291 75.1727 46.2585 74.5001 46.2585C73.8274 46.2585 73.1885 46.1291 72.5805 45.9273C72.4737 45.8918 72.3621 45.875 72.2501 45.875C69.341 45.875 66.9846 48.295 67.0001 51.274C67.0066 52.533 68.0187 53.5455 69.2501 53.5455H79.7501C80.9815 53.5455 81.9935 52.533 82.0001 51.274C82.0155 48.295 79.6591 45.875 76.7501 45.875ZM74.5001 44.3409C76.9854 44.3409 79.0001 42.2804 79.0001 39.7386C79.0001 37.1968 76.9854 35.1364 74.5001 35.1364C72.0148 35.1364 70.0001 37.1968 70.0001 39.7386C70.0001 42.2804 72.0148 44.3409 74.5001 44.3409ZM94.7501 29H76.7501C75.5093 29 74.5001 30.0667 74.5001 31.3774V33.6023C75.5979 33.6023 76.6141 33.9273 77.5001 34.4556V32.0682H94.0001V45.875H91.0001V42.8068H85.0001V45.875H81.4263C82.3216 46.6751 82.9788 47.7317 83.2868 48.9432H94.7501C95.9909 48.9432 97.0001 47.8765 97.0001 46.5658V31.3774C97.0001 30.0667 95.9909 29 94.7501 29Z" fill="black"/>
</g>
<defs>
<clipPath id="clip0_2_7410">
<rect width="30" height="24.5455" fill="white" transform="translate(67 29)"/>
</clipPath>
</defs>
</svg>
