<svg width="1693" height="502" viewBox="0 0 1693 502" fill="none" xmlns="http://www.w3.org/2000/svg">
<path d="M837.218 -53.8386C791.882 48.8094 737.096 69.5202 702.238 62.7334C436.425 -11.5039 450.798 -104.925 510.752 -154.157C570.705 -203.389 604.281 -319.463 593.187 -384.861C582.093 -450.259 568.593 -490.186 619.673 -497.698C660.536 -503.707 649.891 -517.254 713.215 -586.933C809.579 -677.751 921.811 -557.778 909.775 -491.274C897.738 -424.77 929.771 -399.151 1014.04 -265.144C1152.03 -45.698 890.826 -175.216 837.218 -53.8386Z" stroke="#FFEAB8"/>
<path d="M853.487 -31.0192C801.587 86.4907 738.869 110.2 698.963 102.431C394.665 17.4449 411.119 -89.5021 479.753 -145.862C548.387 -202.222 586.824 -335.102 574.124 -409.969C561.423 -484.836 545.969 -530.543 604.444 -539.143C651.225 -546.023 639.038 -561.53 711.53 -641.298C821.846 -745.266 950.328 -607.921 936.549 -531.789C922.77 -455.657 959.441 -426.328 1055.91 -272.919C1213.89 -21.6999 914.857 -169.971 853.487 -31.0192Z" stroke="#FFEAB8"/>
<path d="M869.759 -8.19829C811.294 124.174 740.643 150.882 695.691 142.13C352.906 46.3954 371.441 -74.078 448.756 -137.566C526.07 -201.055 569.369 -350.741 555.062 -435.077C540.755 -519.413 523.346 -570.901 589.217 -580.588C641.914 -588.338 628.186 -605.808 709.847 -695.664C834.116 -812.781 978.848 -658.066 963.326 -572.305C947.804 -486.543 989.113 -453.504 1097.78 -280.693C1275.74 2.29969 938.891 -164.724 869.759 -8.19829Z" stroke="#FFEAB8"/>
<path d="M886.03 14.6218C821.002 161.857 742.418 191.563 692.419 181.829C311.147 75.3451 331.763 -58.6548 417.758 -129.272C503.753 -199.888 551.913 -366.381 536 -460.186C520.087 -553.991 500.723 -611.26 573.99 -622.035C632.604 -630.655 617.335 -650.086 708.164 -750.03C846.385 -880.298 1007.37 -708.212 990.103 -612.821C972.839 -517.431 1018.79 -480.682 1139.66 -288.468C1337.59 26.2985 962.924 -159.478 886.03 14.6218Z" stroke="#FFEAB8"/>
<path d="M902.302 37.4422C830.709 199.539 744.193 232.245 689.146 221.528C269.387 104.295 292.084 -43.2312 386.76 -120.976C481.436 -198.721 534.458 -382.02 516.938 -485.294C499.418 -588.568 478.1 -651.618 558.763 -663.481C623.294 -672.971 606.483 -694.363 706.481 -804.397C858.655 -947.814 1035.89 -758.357 1016.88 -653.337C997.873 -548.317 1048.46 -507.86 1181.53 -296.243C1399.45 50.2975 986.957 -154.232 902.302 37.4422Z" stroke="#FFEAB8"/>
<path d="M918.573 60.2626C840.416 237.222 745.968 272.927 685.874 261.227C227.628 133.245 252.406 -27.8075 355.763 -112.681C459.119 -197.554 517.002 -397.659 497.876 -510.402C478.75 -623.146 455.477 -691.976 543.536 -704.927C613.983 -715.287 595.631 -738.641 704.798 -858.763C870.924 -1015.33 1064.41 -808.502 1043.66 -693.853C1022.91 -579.204 1078.13 -535.037 1223.4 -304.017C1461.3 74.2966 1010.99 -148.986 918.573 60.2626Z" stroke="#FFEAB8"/>
<path d="M934.845 83.0838C850.124 274.906 747.743 313.609 682.602 300.926C185.868 162.196 212.728 -12.3833 324.765 -104.385C436.802 -196.387 499.547 -413.298 478.814 -535.51C458.082 -657.722 432.854 -732.334 528.309 -746.372C604.673 -757.603 584.78 -782.918 703.114 -913.129C883.194 -1082.85 1092.93 -858.646 1070.43 -734.368C1047.94 -610.09 1107.8 -562.214 1265.28 -311.791C1523.15 98.2967 1035.02 -143.739 934.845 83.0838Z" stroke="#FFEAB8"/>
<path d="M951.116 105.904C859.831 312.588 749.517 354.29 679.329 340.625C144.109 191.145 173.049 3.0398 293.767 -96.0902C414.485 -195.22 482.091 -428.938 459.752 -560.619C437.413 -692.3 410.232 -772.693 513.082 -787.819C595.362 -799.92 573.928 -827.196 701.431 -967.496C895.463 -1150.36 1121.45 -908.791 1097.21 -774.885C1072.98 -640.978 1137.47 -589.391 1307.15 -319.566C1585.01 122.295 1059.06 -138.493 951.116 105.904Z" stroke="#FFEAB8"/>
<path d="M967.389 128.724C869.539 350.271 751.293 394.972 676.058 380.324C102.35 220.096 133.372 18.4635 262.771 -87.7948C392.169 -194.053 464.636 -444.577 440.691 -585.727C416.746 -726.878 387.609 -813.051 497.856 -829.265C586.053 -842.236 563.077 -871.473 699.749 -1021.86C907.733 -1217.88 1149.97 -958.936 1123.99 -815.4C1098.01 -671.864 1167.15 -616.569 1349.02 -327.34C1646.86 146.295 1083.09 -133.247 967.389 128.724Z" stroke="#FFEAB8"/>
<path d="M983.659 151.545C879.245 387.954 753.067 435.653 672.784 420.023C60.59 249.046 93.6926 33.8871 231.772 -79.4995C369.851 -192.886 447.18 -460.216 421.628 -610.836C396.077 -761.455 364.986 -853.41 482.628 -870.711C576.741 -884.552 552.224 -915.751 698.065 -1076.23C920.002 -1285.39 1178.49 -1009.08 1150.76 -855.916C1123.04 -702.751 1196.82 -643.746 1390.9 -335.115C1708.72 170.294 1107.12 -128.001 983.659 151.545Z" stroke="#FFEAB8"/>
<path d="M999.931 174.365C888.954 425.637 754.842 476.335 669.513 459.722C18.8315 277.996 54.0152 49.3107 200.775 -71.2042C347.535 -191.719 429.725 -475.855 402.567 -635.944C375.409 -796.032 342.364 -893.768 467.402 -912.157C567.432 -926.868 541.374 -960.028 696.383 -1130.59C932.272 -1352.91 1207.01 -1059.23 1177.54 -896.432C1148.08 -733.638 1226.49 -670.923 1432.77 -342.889C1770.57 194.293 1131.16 -122.755 999.931 174.365Z" stroke="#FFEAB8"/>
<path d="M1016.2 197.186C898.661 463.32 756.617 517.017 666.241 499.421C-22.9279 306.946 14.3369 64.7344 169.778 -62.9088C325.218 -190.552 412.27 -491.495 383.505 -661.052C354.741 -830.61 319.741 -934.126 452.174 -953.603C558.121 -969.184 530.522 -1004.31 694.699 -1184.96C944.542 -1420.43 1235.53 -1109.37 1204.32 -936.948C1173.11 -764.525 1256.16 -698.1 1474.64 -350.664C1832.43 218.293 1155.19 -117.508 1016.2 197.186Z" stroke="#FFEAB8"/>
<path d="M1032.47 220.006C908.368 501.003 758.392 557.698 662.968 539.12C-64.6873 335.896 -25.3415 80.158 138.78 -54.6135C302.901 -189.385 394.814 -507.134 364.443 -686.161C334.073 -865.187 297.118 -974.484 436.947 -995.049C548.811 -1011.5 519.67 -1048.58 693.016 -1239.33C956.811 -1487.94 1264.05 -1159.52 1231.1 -977.464C1198.15 -795.412 1285.84 -725.278 1516.52 -358.438C1894.28 242.292 1179.23 -112.262 1032.47 220.006Z" stroke="#FFEAB8"/>
</svg>
