<svg width="452" height="249" viewBox="0 0 452 249" fill="none" xmlns="http://www.w3.org/2000/svg">
<path d="M451.348 244.598H1.2997C1.12672 244.598 0.960817 244.507 0.838498 244.344C0.716179 244.182 0.647461 243.962 0.647461 243.733C0.647461 243.504 0.716179 243.284 0.838498 243.122C0.960817 242.96 1.12672 242.869 1.2997 242.869H451.348C451.521 242.869 451.686 242.96 451.809 243.122C451.931 243.284 452 243.504 452 243.733C452 243.962 451.931 244.182 451.809 244.344C451.686 244.507 451.521 244.598 451.348 244.598Z" fill="#CCCCCC"/>
<path d="M393.035 96.3931H47.5632C46.0963 96.3931 44.6895 96.9758 43.6522 98.013C42.615 99.0503 42.0322 100.457 42.0322 101.924C42.0322 103.391 42.615 104.798 43.6522 105.835C44.6895 106.872 46.0963 107.455 47.5632 107.455H57.3487V239.772C57.3487 241.239 57.9314 242.646 58.9687 243.683C60.0059 244.72 61.4127 245.303 62.8796 245.303C64.3465 245.303 65.7534 244.72 66.7906 243.683C67.8279 242.646 68.4106 241.239 68.4106 239.772L68.4947 107.455H371.336V239.772C371.336 241.239 371.919 242.646 372.956 243.683C373.994 244.72 375.4 245.303 376.867 245.303C378.334 245.303 379.741 244.72 380.778 243.683C381.816 242.646 382.398 241.239 382.398 239.772V110.371L384.007 107.455H393.035C394.502 107.455 395.908 106.872 396.946 105.835C397.983 104.798 398.566 103.391 398.566 101.924C398.566 100.457 397.983 99.0503 396.946 98.013C395.908 96.9758 394.502 96.3931 393.035 96.3931Z" fill="#CCCCCC"/>
<path d="M239.096 99.2874H134.448C132.422 99.2851 130.479 98.4792 129.047 97.0464C127.614 95.6136 126.808 93.671 126.806 91.6447V34.03C126.808 32.0037 127.614 30.0611 129.047 28.6283C130.479 27.1955 132.422 26.3895 134.448 26.3872H239.096C241.122 26.3895 243.064 27.1955 244.497 28.6283C245.93 30.0611 246.736 32.0037 246.738 34.03V91.6447C246.736 93.671 245.93 95.6136 244.497 97.0464C243.064 98.4792 241.122 99.2851 239.096 99.2874Z" fill="#666666"/>
<path d="M239.096 32.2695H134.45C133.983 32.2705 133.535 32.4564 133.205 32.7865C132.875 33.1166 132.689 33.5641 132.688 34.0309V91.6464C132.689 92.1132 132.875 92.5606 133.205 92.8907C133.535 93.2208 133.983 93.4068 134.45 93.4078H239.096C239.563 93.4068 240.01 93.2208 240.34 92.8907C240.67 92.5606 240.856 92.1132 240.857 91.6464V34.0309C240.856 33.5641 240.67 33.1166 240.34 32.7865C240.01 32.4564 239.563 32.2705 239.096 32.2695Z" fill="white"/>
<path d="M195.697 73.0607C195.697 73.0607 183.17 70.174 176.28 75.4662C169.39 80.7585 185.049 92.7865 185.049 92.7865L195.697 73.0607Z" fill="#1E1E21"/>
<path d="M187.386 67.6066C193.912 67.6066 199.203 62.316 199.203 55.7898C199.203 49.2637 193.912 43.9731 187.386 43.9731C180.86 43.9731 175.569 49.2637 175.569 55.7898C175.569 62.316 180.86 67.6066 187.386 67.6066Z" fill="#A0616A"/>
<path d="M178.248 39.202C179.036 37.8645 180.178 36.7708 181.549 36.0417C182.919 35.3125 184.464 34.9763 186.014 35.0701C187.635 35.2733 189.216 35.7161 190.707 36.3838L198.432 39.3971C200.431 40.1769 202.62 41.132 203.487 43.0944C204.292 44.9159 203.692 47.0194 203.084 48.9157L200.194 57.9298C199.874 55.8896 199.324 53.8922 198.556 51.9753C197.775 50.0456 196.364 48.4369 194.553 47.4111C192.546 46.3817 190.181 46.403 187.929 46.5114C184.739 46.665 181.27 47.0708 179.003 49.321C177.8 50.5989 176.984 52.1921 176.651 53.9153C176.323 55.6294 176.157 57.3706 176.157 59.1158C174.849 56.8671 173.747 54.5045 172.865 52.0571C172.139 50.2348 171.726 48.3032 171.642 46.3434C171.566 44.3668 172.222 42.4318 173.484 40.9086C174.124 40.1643 174.96 39.6137 175.897 39.3189C176.833 39.0241 177.834 38.9967 178.785 39.24L178.248 39.202Z" fill="#1E1E21"/>
<path d="M215.602 83.3072C215.491 82.9081 215.264 82.5506 214.951 82.2797C214.638 82.0087 214.251 81.8363 213.84 81.7841C213.813 81.7651 213.785 81.7481 213.755 81.733L196.115 71.8469C195.611 71.5646 195.018 71.4874 194.458 71.6314C193.899 71.7753 193.417 72.1293 193.112 72.6197L188.288 80.4312L181.021 73.1643L180.905 73.0488C180.532 72.6759 180.04 72.4463 179.514 72.4003C178.989 72.3544 178.464 72.495 178.032 72.7975L163.534 82.9499C163.509 82.9499 163.483 82.9584 163.458 82.9584C162.764 83.074 162.13 83.4229 161.661 83.9474C161.193 84.4718 160.917 85.1405 160.879 85.843L160.505 93.4076H218.401L215.602 83.3072Z" fill="#FFD25D"/>
<path d="M247.915 92.2325H236.744C236.744 91.9206 236.621 91.6215 236.4 91.401C236.18 91.1805 235.88 91.0566 235.569 91.0566H232.041C231.729 91.0566 231.43 91.1805 231.21 91.401C230.989 91.6215 230.865 91.9206 230.865 92.2325H227.338C227.338 91.9206 227.214 91.6215 226.994 91.401C226.773 91.1805 226.474 91.0566 226.162 91.0566H222.635C222.323 91.0566 222.024 91.1805 221.803 91.401C221.583 91.6215 221.459 91.9206 221.459 92.2325H217.931C217.931 91.9206 217.808 91.6215 217.587 91.401C217.367 91.1805 217.067 91.0566 216.756 91.0566H213.228C212.916 91.0566 212.617 91.1805 212.397 91.401C212.176 91.6215 212.052 91.9206 212.052 92.2325H208.525C208.525 91.9206 208.401 91.6215 208.181 91.401C207.96 91.1805 207.661 91.0567 207.349 91.0566H203.822C203.51 91.0566 203.211 91.1805 202.99 91.401C202.77 91.6215 202.646 91.9206 202.646 92.2325H199.119C199.119 91.9206 198.995 91.6215 198.774 91.401C198.554 91.1805 198.255 91.0566 197.943 91.0566H194.415C194.103 91.0566 193.804 91.1805 193.584 91.401C193.363 91.6215 193.239 91.9206 193.239 92.2325H189.712C189.712 91.9206 189.588 91.6215 189.368 91.401C189.147 91.1805 188.848 91.0566 188.536 91.0566H185.009C184.697 91.0566 184.398 91.1805 184.177 91.401C183.957 91.6215 183.833 91.9206 183.833 92.2325H180.306C180.306 91.9206 180.182 91.6215 179.961 91.401C179.741 91.1805 179.442 91.0566 179.13 91.0566H175.602C175.29 91.0566 174.991 91.1805 174.771 91.401C174.55 91.6215 174.426 91.9206 174.426 92.2325H170.899C170.899 91.9206 170.775 91.6215 170.555 91.401C170.334 91.1805 170.035 91.0566 169.723 91.0566H166.196C165.884 91.0566 165.585 91.1805 165.364 91.401C165.144 91.6215 165.02 91.9206 165.02 92.2325H161.493C161.493 91.9206 161.369 91.6215 161.148 91.401C160.928 91.1805 160.629 91.0566 160.317 91.0566H156.789C156.477 91.0566 156.178 91.1805 155.958 91.401C155.737 91.6215 155.614 91.9206 155.614 92.2325H152.086C152.086 91.9206 151.962 91.6215 151.742 91.401C151.521 91.1805 151.222 91.0566 150.91 91.0566H147.383C147.071 91.0566 146.772 91.1805 146.551 91.401C146.331 91.6215 146.207 91.9206 146.207 92.2325H142.68C142.68 91.9206 142.556 91.6215 142.335 91.401C142.115 91.1805 141.816 91.0566 141.504 91.0566H137.976C137.665 91.0566 137.365 91.1805 137.145 91.401C136.924 91.6215 136.801 91.9206 136.801 92.2325H125.63C124.696 92.2339 123.8 92.6062 123.14 93.2675C122.479 93.9289 122.108 94.8253 122.108 95.7599C122.108 96.6945 122.479 97.5909 123.14 98.2522C123.8 98.9136 124.696 99.2859 125.63 99.2873H247.915C248.85 99.2873 249.747 98.9157 250.409 98.2542C251.07 97.5926 251.442 96.6954 251.442 95.7599C251.442 94.8244 251.07 93.9271 250.409 93.2656C249.747 92.6041 248.85 92.2325 247.915 92.2325Z" fill="#666666"/>
<path d="M107.446 71.7478V95.1699H48.7653C47.1931 95.2246 45.626 94.9622 44.1574 94.3983C42.6888 93.8344 41.3487 92.9805 40.2172 91.8877C39.0856 90.7948 38.1857 89.4853 37.571 88.0371C36.9564 86.589 36.6396 85.032 36.6396 83.4588C36.6396 81.8857 36.9564 80.3286 37.571 78.8805C38.1857 77.4324 39.0856 76.1229 40.2172 75.03C41.3487 73.9372 42.6888 73.0833 44.1574 72.5194C45.626 71.9555 47.1931 71.6931 48.7653 71.7478H107.446Z" fill="#F2F2F2"/>
<path d="M108.888 94.9899C108.888 95.2288 108.793 95.4579 108.624 95.6268C108.455 95.7957 108.226 95.8907 107.987 95.8908H47.7205C44.4473 95.8908 41.3082 94.5905 38.9937 92.276C36.6792 89.9615 35.3789 86.8223 35.3789 83.5491C35.3789 80.2759 36.6792 77.1368 38.9937 74.8223C41.3082 72.5078 44.4473 71.2075 47.7205 71.2075H107.987C108.226 71.2075 108.455 71.3024 108.624 71.4714C108.793 71.6403 108.888 71.8695 108.888 72.1084C108.888 72.3473 108.793 72.5764 108.624 72.7454C108.455 72.9143 108.226 73.0092 107.987 73.0092H47.7205C44.9268 73.0117 42.2484 74.1233 40.2738 76.0996C38.2992 78.076 37.1901 80.7554 37.1901 83.5491C37.1901 86.3429 38.2992 89.0223 40.2738 90.9986C42.2484 92.975 44.9268 94.0865 47.7205 94.0891H107.987C108.226 94.0891 108.455 94.1841 108.624 94.353C108.793 94.5219 108.888 94.751 108.888 94.9899Z" fill="#FFD25D"/>
<path d="M107.447 77.1528H44.3875C44.3637 77.153 44.3401 77.1484 44.3181 77.1395C44.2961 77.1305 44.2761 77.1172 44.2593 77.1005C44.2424 77.0837 44.229 77.0638 44.2199 77.0419C44.2108 77.02 44.2061 76.9964 44.2061 76.9727C44.2061 76.9489 44.2108 76.9254 44.2199 76.9034C44.229 76.8815 44.2424 76.8616 44.2593 76.8448C44.2761 76.8281 44.2961 76.8148 44.3181 76.8059C44.3401 76.7969 44.3637 76.7923 44.3875 76.7925H107.447C107.494 76.7928 107.54 76.8119 107.573 76.8457C107.607 76.8794 107.626 76.9251 107.626 76.9727C107.626 77.0202 107.607 77.0659 107.573 77.0996C107.54 77.1334 107.494 77.1525 107.447 77.1528Z" fill="#CCCCCC"/>
<path d="M107.447 81.477H44.3875C44.3637 81.4772 44.3401 81.4726 44.3181 81.4637C44.2961 81.4547 44.2761 81.4415 44.2593 81.4247C44.2424 81.408 44.229 81.388 44.2199 81.3661C44.2108 81.3442 44.2061 81.3206 44.2061 81.2969C44.2061 81.2731 44.2108 81.2496 44.2199 81.2276C44.229 81.2057 44.2424 81.1858 44.2593 81.169C44.2761 81.1523 44.2961 81.139 44.3181 81.1301C44.3401 81.1211 44.3637 81.1165 44.3875 81.1167H107.447C107.494 81.117 107.54 81.1361 107.573 81.1699C107.607 81.2036 107.626 81.2493 107.626 81.2969C107.626 81.3444 107.607 81.3901 107.573 81.4238C107.54 81.4576 107.494 81.4767 107.447 81.477Z" fill="#CCCCCC"/>
<path d="M107.447 85.8013H44.3875C44.3637 85.8014 44.3401 85.7969 44.3181 85.7879C44.2961 85.7789 44.2761 85.7657 44.2593 85.7489C44.2424 85.7322 44.229 85.7123 44.2199 85.6903C44.2108 85.6684 44.2061 85.6449 44.2061 85.6211C44.2061 85.5973 44.2108 85.5738 44.2199 85.5519C44.229 85.5299 44.2424 85.51 44.2593 85.4932C44.2761 85.4765 44.2961 85.4633 44.3181 85.4543C44.3401 85.4453 44.3637 85.4408 44.3875 85.4409H107.447C107.494 85.4412 107.54 85.4604 107.573 85.4941C107.607 85.5279 107.626 85.5735 107.626 85.6211C107.626 85.6687 107.607 85.7143 107.573 85.748C107.54 85.7818 107.494 85.8009 107.447 85.8013Z" fill="#CCCCCC"/>
<path d="M107.447 90.125H44.3875C44.3637 90.1251 44.3401 90.1206 44.3181 90.1116C44.2961 90.1027 44.2761 90.0894 44.2593 90.0727C44.2424 90.0559 44.229 90.036 44.2199 90.014C44.2108 89.9921 44.2061 89.9686 44.2061 89.9448C44.2061 89.9211 44.2108 89.8975 44.2199 89.8756C44.229 89.8536 44.2424 89.8338 44.2593 89.817C44.2761 89.8003 44.2961 89.787 44.3181 89.778C44.3401 89.769 44.3637 89.7645 44.3875 89.7647H107.447C107.494 89.765 107.54 89.7841 107.573 89.8179C107.607 89.8516 107.626 89.8972 107.626 89.9448C107.626 89.9924 107.607 90.038 107.573 90.0718C107.54 90.1056 107.494 90.1247 107.447 90.125Z" fill="#CCCCCC"/>
<path d="M96.3848 47.0715V70.4936H37.7038C36.1316 70.5483 34.5645 70.2859 33.0958 69.722C31.6272 69.1581 30.2872 68.3043 29.1556 67.2114C28.0241 66.1185 27.1241 64.809 26.5095 63.3609C25.8949 61.9128 25.5781 60.3557 25.5781 58.7826C25.5781 57.2094 25.8949 55.6524 26.5095 54.2043C27.1241 52.7562 28.0241 51.4466 29.1556 50.3538C30.2872 49.2609 31.6272 48.4071 33.0958 47.8432C34.5645 47.2792 36.1316 47.0168 37.7038 47.0715H96.3848Z" fill="#F2F2F2"/>
<path d="M97.8256 70.3131C97.8255 70.552 97.7306 70.7811 97.5617 70.95C97.3928 71.119 97.1636 71.2139 96.9248 71.214H36.658C35.0373 71.214 33.4324 70.8948 31.9351 70.2745C30.4377 69.6543 29.0772 68.7452 27.9312 67.5992C26.7852 66.4532 25.8761 65.0927 25.2558 63.5953C24.6356 62.098 24.3164 60.4931 24.3164 58.8724C24.3164 57.2517 24.6356 55.6468 25.2558 54.1494C25.8761 52.6521 26.7852 51.2916 27.9312 50.1455C29.0772 48.9995 30.4377 48.0904 31.9351 47.4702C33.4324 46.85 35.0373 46.5308 36.658 46.5308H96.9248C97.1637 46.5308 97.3928 46.6257 97.5617 46.7946C97.7307 46.9636 97.8256 47.1927 97.8256 47.4316C97.8256 47.6705 97.7307 47.8997 97.5617 48.0686C97.3928 48.2375 97.1637 48.3324 96.9248 48.3324H36.658C33.8643 48.3349 31.1859 49.4465 29.2113 51.4229C27.2367 53.3992 26.1276 56.0787 26.1276 58.8724C26.1276 61.6661 27.2367 64.3455 29.2113 66.3219C31.1859 68.2982 33.8643 69.4098 36.658 69.4123H96.9248C97.1636 69.4124 97.3927 69.5073 97.5616 69.6763C97.7306 69.8452 97.8255 70.0743 97.8256 70.3131Z" fill="#666666"/>
<path d="M96.3843 52.4766H33.325C33.3012 52.4767 33.2776 52.4722 33.2556 52.4632C33.2336 52.4542 33.2136 52.441 33.1968 52.4242C33.1799 52.4075 33.1665 52.3876 33.1574 52.3656C33.1483 52.3437 33.1436 52.3202 33.1436 52.2964C33.1436 52.2726 33.1483 52.2491 33.1574 52.2271C33.1665 52.2052 33.1799 52.1853 33.1968 52.1686C33.2136 52.1518 33.2336 52.1386 33.2556 52.1296C33.2776 52.1206 33.3012 52.1161 33.325 52.1162H96.3843C96.4319 52.1165 96.4774 52.1357 96.511 52.1694C96.5445 52.2032 96.5633 52.2488 96.5633 52.2964C96.5633 52.344 96.5445 52.3896 96.511 52.4234C96.4774 52.4571 96.4319 52.4762 96.3843 52.4766Z" fill="#CCCCCC"/>
<path d="M96.3843 56.8008H33.325C33.3012 56.8009 33.2776 56.7964 33.2556 56.7874C33.2336 56.7784 33.2136 56.7652 33.1968 56.7484C33.1799 56.7317 33.1665 56.7118 33.1574 56.6898C33.1483 56.6679 33.1436 56.6444 33.1436 56.6206C33.1436 56.5968 33.1483 56.5733 33.1574 56.5513C33.1665 56.5294 33.1799 56.5095 33.1968 56.4928C33.2136 56.476 33.2336 56.4628 33.2556 56.4538C33.2776 56.4448 33.3012 56.4403 33.325 56.4404H96.3843C96.4319 56.4408 96.4774 56.4599 96.511 56.4936C96.5445 56.5274 96.5633 56.573 96.5633 56.6206C96.5633 56.6682 96.5445 56.7138 96.511 56.7476C96.4774 56.7813 96.4319 56.8004 96.3843 56.8008Z" fill="#CCCCCC"/>
<path d="M96.3843 61.1245H33.325C33.3012 61.1247 33.2776 61.1201 33.2556 61.1111C33.2336 61.1022 33.2136 61.0889 33.1968 61.0722C33.1799 61.0554 33.1665 61.0355 33.1574 61.0136C33.1483 60.9916 33.1436 60.9681 33.1436 60.9443C33.1436 60.9206 33.1483 60.897 33.1574 60.8751C33.1665 60.8532 33.1799 60.8332 33.1968 60.8165C33.2136 60.7997 33.2336 60.7865 33.2556 60.7775C33.2776 60.7685 33.3012 60.764 33.325 60.7642H96.3843C96.4319 60.7645 96.4774 60.7836 96.511 60.8174C96.5445 60.8511 96.5633 60.8968 96.5633 60.9443C96.5633 60.9919 96.5445 61.0375 96.511 61.0713C96.4774 61.105 96.4319 61.1242 96.3843 61.1245Z" fill="#CCCCCC"/>
<path d="M96.3843 65.4487H33.325C33.3012 65.4489 33.2776 65.4443 33.2556 65.4353C33.2336 65.4264 33.2136 65.4131 33.1968 65.3964C33.1799 65.3796 33.1665 65.3597 33.1574 65.3378C33.1483 65.3158 33.1436 65.2923 33.1436 65.2685C33.1436 65.2448 33.1483 65.2213 33.1574 65.1993C33.1665 65.1774 33.1799 65.1575 33.1968 65.1407C33.2136 65.124 33.2336 65.1107 33.2556 65.1017C33.2776 65.0927 33.3012 65.0882 33.325 65.0884H96.3843C96.4319 65.0887 96.4774 65.1078 96.511 65.1416C96.5445 65.1753 96.5633 65.221 96.5633 65.2685C96.5633 65.3161 96.5445 65.3618 96.511 65.3955C96.4774 65.4293 96.4319 65.4484 96.3843 65.4487Z" fill="#CCCCCC"/>
<path d="M164.649 178.423V158.001C164.649 157.098 164.29 156.232 163.652 155.594C163.014 154.956 162.148 154.597 161.245 154.597H83.8119C82.9092 154.597 82.0434 154.956 81.4051 155.594C80.7668 156.232 80.4082 157.098 80.4082 158.001V178.423H164.649Z" fill="#CCCCCC"/>
<path d="M164.649 186.081H80.4082V212.459H164.649V186.081Z" fill="#CCCCCC"/>
<path d="M80.4082 220.118V240.54C80.4082 241.442 80.7668 242.308 81.4051 242.946C82.0434 243.585 82.9092 243.943 83.8119 243.943H161.245C162.148 243.943 163.014 243.585 163.652 242.946C164.29 242.308 164.649 241.442 164.649 240.54V220.118H80.4082Z" fill="#CCCCCC"/>
<path d="M122.103 169.914C123.512 169.914 124.655 168.771 124.655 167.361C124.655 165.951 123.512 164.808 122.103 164.808C120.693 164.808 119.55 165.951 119.55 167.361C119.55 168.771 120.693 169.914 122.103 169.914Z" fill="white"/>
<path d="M122.103 203.95C123.512 203.95 124.655 202.807 124.655 201.397C124.655 199.988 123.512 198.845 122.103 198.845C120.693 198.845 119.55 199.988 119.55 201.397C119.55 202.807 120.693 203.95 122.103 203.95Z" fill="white"/>
<path d="M122.239 237.266C123.649 237.266 124.792 236.123 124.792 234.713C124.792 233.304 123.649 232.161 122.239 232.161C120.829 232.161 119.687 233.304 119.687 234.713C119.687 236.123 120.829 237.266 122.239 237.266Z" fill="white"/>
<path d="M155.098 131.312V154.734H96.4167C94.8445 154.789 93.2773 154.526 91.8087 153.962C90.3401 153.398 89.0001 152.544 87.8685 151.452C86.7369 150.359 85.8371 149.049 85.2224 147.601C84.6078 146.153 84.291 144.596 84.291 143.023C84.291 141.45 84.6078 139.893 85.2224 138.445C85.8371 136.996 86.7369 135.687 87.8685 134.594C89.0001 133.501 90.3401 132.647 91.8087 132.083C93.2773 131.519 94.8445 131.257 96.4167 131.312H155.098Z" fill="#F2F2F2"/>
<path d="M156.539 154.554C156.539 154.793 156.444 155.022 156.275 155.191C156.106 155.36 155.877 155.455 155.638 155.455H95.3714C93.7498 155.456 92.1438 155.138 90.6453 154.518C89.1468 153.899 87.785 152.99 86.6379 151.844C85.4908 150.697 84.5808 149.336 83.9599 147.838C83.3391 146.34 83.0195 144.735 83.0195 143.113C83.0195 141.491 83.3391 139.886 83.9599 138.388C84.5808 136.89 85.4908 135.529 86.6379 134.383C87.785 133.236 89.1468 132.328 90.6453 131.708C92.1438 131.088 93.7498 130.77 95.3714 130.771H155.638C155.877 130.771 156.106 130.866 156.275 131.035C156.444 131.204 156.539 131.433 156.539 131.672C156.539 131.911 156.444 132.14 156.275 132.309C156.106 132.478 155.877 132.573 155.638 132.573H95.3714C92.5777 132.576 89.8992 133.687 87.9247 135.664C85.9501 137.64 84.8409 140.319 84.8409 143.113C84.8409 145.907 85.9501 148.586 87.9247 150.563C89.8992 152.539 92.5777 153.651 95.3714 153.653H155.638C155.877 153.653 156.106 153.748 156.275 153.917C156.444 154.086 156.539 154.315 156.539 154.554Z" fill="#666666"/>
<path d="M155.098 136.717H92.0388C92.0151 136.717 91.9915 136.712 91.9695 136.703C91.9475 136.694 91.9275 136.681 91.9106 136.664C91.8937 136.648 91.8804 136.628 91.8712 136.606C91.8621 136.584 91.8574 136.56 91.8574 136.537C91.8574 136.513 91.8621 136.489 91.8712 136.467C91.8804 136.445 91.8937 136.426 91.9106 136.409C91.9275 136.392 91.9475 136.379 91.9695 136.37C91.9915 136.361 92.0151 136.356 92.0388 136.356H155.098C155.146 136.357 155.191 136.376 155.225 136.41C155.258 136.443 155.277 136.489 155.277 136.537C155.277 136.584 155.258 136.63 155.225 136.664C155.191 136.697 155.146 136.716 155.098 136.717Z" fill="#CCCCCC"/>
<path d="M155.098 141.041H92.0388C92.0151 141.041 91.9915 141.037 91.9695 141.028C91.9475 141.019 91.9275 141.005 91.9106 140.989C91.8937 140.972 91.8804 140.952 91.8712 140.93C91.8621 140.908 91.8574 140.885 91.8574 140.861C91.8574 140.837 91.8621 140.814 91.8712 140.792C91.8804 140.77 91.8937 140.75 91.9106 140.733C91.9275 140.716 91.9475 140.703 91.9695 140.694C91.9915 140.685 92.0151 140.681 92.0388 140.681H155.098C155.146 140.681 155.191 140.7 155.225 140.734C155.258 140.768 155.277 140.813 155.277 140.861C155.277 140.908 155.258 140.954 155.225 140.988C155.191 141.022 155.146 141.041 155.098 141.041Z" fill="#CCCCCC"/>
<path d="M155.098 145.365H92.0388C92.0151 145.365 91.9915 145.361 91.9695 145.352C91.9475 145.343 91.9275 145.33 91.9106 145.313C91.8937 145.296 91.8804 145.276 91.8712 145.254C91.8621 145.232 91.8574 145.209 91.8574 145.185C91.8574 145.161 91.8621 145.138 91.8712 145.116C91.8804 145.094 91.8937 145.074 91.9106 145.057C91.9275 145.04 91.9475 145.027 91.9695 145.018C91.9915 145.009 92.0151 145.005 92.0388 145.005H155.098C155.146 145.005 155.191 145.024 155.225 145.058C155.258 145.092 155.277 145.137 155.277 145.185C155.277 145.233 155.258 145.278 155.225 145.312C155.191 145.346 155.146 145.365 155.098 145.365Z" fill="#CCCCCC"/>
<path d="M155.098 149.689H92.0388C92.0151 149.689 91.9915 149.685 91.9695 149.676C91.9475 149.667 91.9275 149.653 91.9106 149.637C91.8937 149.62 91.8804 149.6 91.8712 149.578C91.8621 149.556 91.8574 149.533 91.8574 149.509C91.8574 149.485 91.8621 149.461 91.8712 149.44C91.8804 149.418 91.8937 149.398 91.9106 149.381C91.9275 149.364 91.9475 149.351 91.9695 149.342C91.9915 149.333 92.0151 149.328 92.0388 149.329H155.098C155.146 149.329 155.191 149.348 155.225 149.382C155.258 149.416 155.277 149.461 155.277 149.509C155.277 149.556 155.258 149.602 155.225 149.636C155.191 149.67 155.146 149.689 155.098 149.689Z" fill="#CCCCCC"/>
<path d="M293.357 89.0766H266.622C266.368 89.0764 266.118 89.1346 265.89 89.2468L259.142 92.6249C258.92 92.7193 258.731 92.8769 258.598 93.0781C258.465 93.2793 258.394 93.5153 258.394 93.7566C258.394 93.9979 258.465 94.2339 258.598 94.4351C258.731 94.6363 258.92 94.7939 259.142 94.8883L265.89 98.2664C266.118 98.3786 266.368 98.4368 266.622 98.4366H293.357C293.726 98.4579 294.088 98.3333 294.365 98.0896C294.642 97.8459 294.812 97.5028 294.838 97.1347V90.3785C294.812 90.0104 294.642 89.6673 294.365 89.4236C294.088 89.1799 293.726 89.0552 293.357 89.0766Z" fill="#666666"/>
<path d="M294.839 90.3785V97.1348C294.813 97.5029 294.643 97.8459 294.365 98.0896C294.088 98.3333 293.726 98.4579 293.358 98.4366H288.031V89.0766H293.358C293.726 89.0552 294.088 89.18 294.365 89.4236C294.643 89.6673 294.813 90.0104 294.839 90.3785Z" fill="#FFD25D"/>
<path d="M293.157 38.5319C294.368 38.0093 295.676 37.7485 296.994 37.7665C298.313 37.7845 299.613 38.081 300.81 38.6365C302.006 39.192 303.071 39.994 303.936 40.9899C304.801 41.9859 305.445 43.1533 305.827 44.4156C305.946 44.8159 306.037 45.2239 306.1 45.6367L343.487 64.1766L352.14 58.4427L362.905 70.8365L349.694 81.5664C348.105 82.8467 346.146 83.5806 344.107 83.6592C342.068 83.7379 340.058 83.157 338.376 82.0029L300.443 55.7708C300.16 55.8905 299.872 55.9956 299.579 56.0857C298.316 56.4675 296.987 56.5783 295.679 56.4107C294.371 56.2431 293.112 55.801 291.987 55.1132C290.861 54.4255 289.894 53.5076 289.148 52.4198C288.402 51.3321 287.894 50.0989 287.657 48.8012C287.587 48.4245 287.541 48.0438 287.519 47.6614C287.414 45.746 287.898 43.8443 288.906 42.2121C289.914 40.58 291.397 39.2957 293.157 38.5319Z" fill="#FFB8B8"/>
<path d="M371.027 152.681H330.175C330.175 153.855 288.072 154.808 288.072 154.808C287.411 155.306 286.809 155.877 286.277 156.51C284.677 158.418 283.803 160.829 283.809 163.318V165.019C283.81 167.84 284.931 170.545 286.925 172.539C288.92 174.534 291.624 175.655 294.445 175.656H371.027C373.848 175.653 376.552 174.532 378.546 172.538C380.54 170.544 381.661 167.84 381.664 165.019V163.318C381.66 160.498 380.538 157.795 378.544 155.801C376.55 153.807 373.847 152.685 371.027 152.681Z" fill="#666666"/>
<path d="M326.589 246.71H337.651V175.234H326.589V246.71Z" fill="#666666"/>
<path d="M295.105 246.322C295.105 247.517 311.868 246.784 332.546 246.784C353.223 246.784 369.986 247.517 369.986 246.322C369.986 245.127 353.223 235.648 332.546 235.648C311.868 235.648 295.105 245.127 295.105 246.322Z" fill="#666666"/>
<path d="M305.092 237.944L294.661 237.943L289.697 210.887L305.094 210.888L305.092 237.944Z" fill="#FFB8B8"/>
<path d="M307.752 248.056L274.115 248.055V247.629C274.115 245.91 274.454 244.208 275.112 242.619C275.77 241.031 276.734 239.587 277.95 238.372C279.166 237.156 280.609 236.192 282.198 235.534C283.786 234.876 285.488 234.537 287.208 234.537H287.209L307.753 234.538L307.752 248.056Z" fill="#1E1E21"/>
<path d="M289.489 221.166L268.692 174.529C266.955 170.598 266.763 166.158 268.154 162.092C269.545 158.026 272.416 154.633 276.196 152.589L321.306 128.399L341.89 126.648L360.878 124.922L361.015 125.154C361.19 125.45 365.273 132.502 362.513 140.234C360.42 146.099 354.975 150.68 346.33 153.85C326.151 161.249 302.84 167.573 293.755 169.948C293.353 170.05 292.978 170.237 292.654 170.495C292.329 170.753 292.063 171.077 291.873 171.445C291.683 171.809 291.569 172.209 291.541 172.618C291.512 173.028 291.568 173.44 291.706 173.827L311.028 217.236C311.229 217.786 311.302 218.376 311.24 218.959C311.178 219.542 310.983 220.103 310.67 220.599C310.356 221.095 309.933 221.512 309.434 221.818C308.934 222.125 308.37 222.312 307.786 222.366L293.349 223.418C293.226 223.429 293.104 223.435 292.983 223.435C292.244 223.435 291.52 223.22 290.9 222.817C290.28 222.415 289.79 221.841 289.489 221.166Z" fill="#1E1E21"/>
<path d="M310.198 237.944L299.766 237.943L294.803 210.887L310.199 210.888L310.198 237.944Z" fill="#FFB8B8"/>
<path d="M312.858 248.056L279.221 248.055V247.629C279.221 245.91 279.559 244.208 280.217 242.619C280.875 241.031 281.84 239.587 283.055 238.372C284.271 237.156 285.715 236.192 287.303 235.534C288.891 234.876 290.594 234.537 292.313 234.537H292.314L312.858 234.538L312.858 248.056Z" fill="#1E1E21"/>
<path d="M295.445 223.718L274.648 177.082C272.912 173.151 272.72 168.71 274.11 164.644C275.501 160.578 278.372 157.186 282.152 155.141L327.262 130.952L347.846 129.201L366.834 127.475L366.971 127.707C367.146 128.003 371.229 135.054 368.469 142.787C366.376 148.652 360.931 153.233 352.286 156.403C332.107 163.802 308.796 170.126 299.711 172.501C299.309 172.603 298.934 172.79 298.61 173.048C298.285 173.306 298.019 173.63 297.829 173.998C297.639 174.362 297.525 174.761 297.497 175.171C297.468 175.581 297.524 175.993 297.662 176.38L316.984 219.789C317.185 220.339 317.258 220.929 317.196 221.512C317.134 222.095 316.939 222.656 316.626 223.152C316.312 223.647 315.89 224.064 315.39 224.371C314.89 224.677 314.326 224.865 313.742 224.919L299.305 225.97C299.183 225.982 299.061 225.988 298.939 225.988C298.2 225.987 297.476 225.773 296.856 225.37C296.236 224.967 295.746 224.394 295.445 223.718Z" fill="#1E1E21"/>
<path d="M285.079 81.2491C276.34 69.6245 269.431 56.7309 264.593 43.016C264.313 42.1956 264.333 41.3024 264.649 40.4954C264.966 39.6883 265.559 39.0198 266.322 38.6088L296.228 22.5847C296.711 22.3235 297.248 22.1762 297.798 22.1539C298.347 22.1316 298.894 22.2349 299.398 22.456C299.91 22.6788 300.366 23.0157 300.729 23.4409C301.091 23.8662 301.353 24.3687 301.492 24.9101C304.973 38.1261 311.516 50.3372 320.591 60.5555C320.965 60.9714 321.239 61.4671 321.392 62.0048C321.545 62.5425 321.573 63.1081 321.475 63.6584C321.38 64.2 321.163 64.7129 320.84 65.1579C320.517 65.6029 320.097 65.9685 319.612 66.2266L289.706 82.2507C288.941 82.6586 288.056 82.7818 287.209 82.5984C286.362 82.415 285.607 81.9369 285.079 81.2491Z" fill="#CCCCCC"/>
<path d="M287.12 79.7158C287.281 79.9166 287.507 80.0549 287.759 80.1069C288.011 80.159 288.273 80.1214 288.5 80.0008L318.406 63.9764C318.551 63.9007 318.677 63.7924 318.773 63.66C318.87 63.5276 318.934 63.3746 318.961 63.2131C318.993 63.0427 318.984 62.8673 318.936 62.7008C318.888 62.5342 318.802 62.3811 318.685 62.2534C309.342 51.7341 302.606 39.1631 299.023 25.5576C298.981 25.3895 298.902 25.2333 298.79 25.1012C298.678 24.9691 298.537 24.8646 298.378 24.7961C298.228 24.7291 298.065 24.6977 297.901 24.7045C297.737 24.7113 297.577 24.756 297.433 24.8351L267.528 40.8591C267.301 40.9815 267.125 41.1792 267.028 41.418C266.932 41.6569 266.922 41.9218 267.001 42.1671C271.752 55.6365 278.537 68.2993 287.12 79.7158Z" fill="white"/>
<path d="M384.431 76.9749L361.009 85.8749L355.291 69.9912C354.532 67.8821 354.543 65.5724 355.322 63.4704C356.1 61.3684 357.597 59.6094 359.548 58.5043C361.52 57.3863 363.828 57.0106 366.054 57.4451C368.279 57.8797 370.276 59.0957 371.684 60.8736L384.431 76.9749Z" fill="#FFD25D"/>
<path d="M324.859 139.908C324.366 139.56 323.953 139.11 323.647 138.589C323.341 138.069 323.15 137.489 323.086 136.889C320.086 108.885 322.175 86.9705 329.473 69.8919C330.758 66.9463 332.694 64.3303 335.136 62.2404C337.577 60.1506 340.461 58.6414 343.57 57.8262L362.502 56.8706L362.6 56.918C366.872 59.0105 370.357 62.4241 372.536 66.6527C374.715 70.8813 375.474 75.6996 374.7 80.3933C368.61 96.4444 363.511 113.156 367.4 126.637C367.563 127.201 367.611 127.792 367.54 128.374C367.469 128.957 367.281 129.519 366.988 130.027C366.704 130.518 366.322 130.946 365.866 131.284C365.41 131.622 364.89 131.863 364.337 131.992L328.276 140.57C327.693 140.709 327.086 140.722 326.496 140.608C325.907 140.493 325.349 140.255 324.859 139.908Z" fill="#FFD25D"/>
<path d="M356.184 49.7992C367.726 49.7992 377.083 40.4422 377.083 28.8998C377.083 17.3575 367.726 8.00049 356.184 8.00049C344.641 8.00049 335.284 17.3575 335.284 28.8998C335.284 40.4422 344.641 49.7992 356.184 49.7992Z" fill="#FFB8B8"/>
<path d="M298.191 45.4526L281.904 52.6425C281.284 52.9151 280.582 52.9309 279.951 52.6864C279.32 52.4418 278.811 51.9569 278.537 51.338L278.134 50.4254C277.862 49.806 277.846 49.1037 278.091 48.4726C278.335 47.8415 278.82 47.3332 279.439 47.0592L295.727 39.8694C296.346 39.5967 297.049 39.5809 297.68 39.8255C298.311 40.07 298.819 40.5549 299.093 41.1738L299.496 42.0864C299.769 42.7059 299.784 43.4082 299.54 44.0393C299.295 44.6704 298.81 45.1786 298.191 45.4526Z" fill="#CCCCCC"/>
<path d="M304.147 56.5146L287.86 63.7045C287.24 63.9772 286.538 63.9929 285.907 63.7484C285.276 63.5038 284.767 63.0189 284.493 62.4L284.091 61.4874C283.818 60.868 283.802 60.1657 284.047 59.5346C284.291 58.9035 284.776 58.3952 285.395 58.1212L301.683 50.9314C302.302 50.6587 303.005 50.643 303.636 50.8875C304.267 51.1321 304.775 51.6169 305.049 52.2358L305.452 53.1484C305.725 53.7679 305.74 54.4702 305.496 55.1013C305.251 55.7324 304.766 56.2406 304.147 56.5146Z" fill="#CCCCCC"/>
<path d="M316.709 99.7217L280.397 71.0748C280.108 71.1766 279.813 71.2634 279.515 71.3349C278.233 71.6347 276.903 71.6615 275.61 71.4136C274.318 71.1656 273.092 70.6485 272.012 69.8957C270.925 69.1424 270.011 68.1657 269.333 67.0308C268.654 65.8959 268.225 64.6292 268.075 63.3152C267.832 61.2147 268.305 59.0936 269.419 57.296C270.532 55.4983 272.22 54.1297 274.209 53.4121C275.451 52.9668 276.772 52.7888 278.087 52.8898C279.403 52.9908 280.681 53.3684 281.84 53.9981C282.999 54.6277 284.012 55.495 284.813 56.5433C285.613 57.5916 286.183 58.7972 286.485 60.0811C286.578 60.488 286.644 60.9008 286.68 61.3167L322.828 82.1704L331.824 76.9914L341.789 90.0376L327.822 99.9926C326.186 101.148 324.222 101.746 322.22 101.698C320.219 101.649 318.286 100.956 316.709 99.7217Z" fill="#FFB8B8"/>
<path d="M346.219 94.1003L325.5 80.0113L335.237 66.2207C336.53 64.3895 338.428 63.0743 340.597 62.5075C342.766 61.9407 345.065 62.1589 347.089 63.1234C349.136 64.099 350.767 65.7745 351.686 67.8472C352.606 69.9199 352.755 72.2532 352.105 74.4257L346.219 94.1003Z" fill="#FFD25D"/>
<path d="M348.521 25.7871C343.149 29.4635 336.096 33.2426 330.61 29.3276C327.007 26.7569 325.873 21.9966 327.333 17.8191C329.96 10.3067 337.178 6.99943 344.08 4.46431C353.052 1.16868 362.822 -1.45315 372.084 0.907027C381.347 3.2672 389.533 12.2352 387.861 21.6463C386.516 29.2145 379.377 35.5119 380.391 43.1316C381.411 50.8001 390.035 54.8366 397.648 56.2072C405.262 57.5778 413.782 58.0181 419.254 63.487C426.234 70.4634 424.491 82.9331 417.923 90.2989C411.355 97.6647 401.443 101.004 391.839 103.273C379.114 106.281 365.351 107.861 353.265 102.87C341.18 97.8792 331.775 84.4442 335.276 71.846C336.755 66.5245 340.238 62.0272 343.605 57.6489C346.972 53.2706 350.381 48.6922 351.665 43.3204C352.736 38.844 351.943 33.6466 348.975 30.2888C348.435 29.7011 348.095 28.9574 348.004 28.1645C347.913 27.3716 348.076 26.5702 348.469 25.8756L348.521 25.7871Z" fill="#1E1E21"/>
</svg>
