<svg width="159" height="33" viewBox="0 0 159 33" fill="none" xmlns="http://www.w3.org/2000/svg">
<g clip-path="url(#clip0_2_7507)">
<path fill-rule="evenodd" clip-rule="evenodd" d="M146.925 6.6084L146.737 7.81295L146.666 8.52623L146.643 9.22535L146.661 9.90556L146.723 10.5716L146.821 11.2235L146.953 11.8565L147.127 12.4753L147.33 13.0752L147.561 13.6562L147.824 14.2231L148.111 14.771L148.422 15.3001L148.752 15.815L149.105 16.3109L149.476 16.7928L149.858 17.2604L150.258 17.7092L150.667 18.139L151.086 18.5547L151.515 18.9562L151.943 19.3436L152.381 19.7168L152.819 20.071L153.257 20.4111L153.69 20.7371L154.118 21.0489L154.542 21.3417L154.961 21.6251L155.366 21.8944L155.756 22.1448L156.863 22.8391L157.098 21.5543L157.164 21.063L157.206 20.5481L157.23 20.0049L157.234 19.4428L157.216 18.857L157.178 18.2571L157.117 17.643L157.037 17.0148L156.928 16.3818L156.801 15.7441L156.646 15.1017L156.467 14.4592L156.265 13.8168L156.034 13.1886L155.775 12.565L155.493 11.9557L155.177 11.3605L154.838 10.7842L154.466 10.2268L154.062 9.70244L153.624 9.20173L153.158 8.73408L152.654 8.29949L152.117 7.90743L151.548 7.56259L150.941 7.26027L150.3 7.01464L149.622 6.82097L148.916 6.6887L148.173 6.61785L146.925 6.6084Z" fill="black"/>
<path fill-rule="evenodd" clip-rule="evenodd" d="M147.425 7.19436C146.008 14.6767 152.518 19.443 156.449 21.8899C157.386 17.5157 155.319 6.91566 147.425 7.19436Z" fill="white"/>
<path fill-rule="evenodd" clip-rule="evenodd" d="M156.137 22.0739L155.846 22.9147L155.686 23.3257L155.516 23.7272L155.328 24.1193L155.13 24.5066L154.918 24.8798L154.697 25.2482L154.462 25.6025L154.217 25.9474L153.963 26.2827L153.694 26.6087L153.417 26.9205L153.125 27.2228L152.828 27.5109L152.517 27.7896L152.202 28.0541L151.873 28.3045L151.538 28.5407L151.19 28.7674L150.837 28.9753L150.479 29.1737L150.107 29.3532L149.735 29.5185L149.349 29.6649L148.963 29.7972L148.563 29.9153L148.163 30.0145L147.758 30.0948L147.344 30.1609L146.925 30.2082L146.501 30.2365L146.082 30.246L145.875 30.2412L145.673 30.2365L145.47 30.2271L145.273 30.2129L145.075 30.194L144.877 30.1704L144.679 30.142L144.482 30.109L144.289 30.0759L144.096 30.0381L143.903 29.9956L143.71 29.9484L143.521 29.8964L143.333 29.8397L143.15 29.783L142.961 29.7216L142.778 29.6555L142.594 29.5846L142.415 29.5138L142.236 29.4382L142.057 29.3579L141.883 29.2729L141.709 29.1878L141.535 29.0981L141.365 29.0036L141.196 28.9044L141.026 28.8052L140.862 28.7013L140.702 28.5974L140.537 28.4887L140.377 28.3754L139.718 27.8888L140.17 27.3598L140.688 26.7126L141.191 26.0418L141.681 25.3427L142.152 24.6153L142.608 23.8642L143.046 23.0895L143.46 22.2959L143.851 21.4787L144.218 20.6379L144.557 19.7782L144.868 18.8996L145.15 18.002L145.4 17.0856L145.616 16.1551L145.795 15.2056L145.936 14.2467L146.035 13.2689L146.096 12.2816L145.913 6.68398L147.024 6.6084L147.382 12.395L147.579 12.9807L147.805 13.5476L148.064 14.105L148.342 14.6387L148.648 15.1584L148.973 15.6638L149.321 16.1551L149.684 16.6274L150.065 17.0856L150.456 17.5249L150.86 17.9548L151.275 18.3658L151.694 18.7578L152.122 19.1405L152.55 19.5089L152.983 19.8585L153.417 20.1986L153.845 20.5198L154.273 20.8268L154.692 21.1197L155.107 21.4031L155.511 21.6677L156.137 22.0739Z" fill="black"/>
<path fill-rule="evenodd" clip-rule="evenodd" d="M155.441 22.3149C154.029 26.604 150.371 29.6603 146.078 29.6603C144.04 29.6603 142.147 28.9706 140.57 27.7897L140.617 27.733L141.145 27.0717L141.658 26.382L142.157 25.6687L142.642 24.9271L143.108 24.1619L143.555 23.373L143.979 22.5605L144.379 21.7244L144.755 20.8647L145.104 19.9861L145.424 19.0886L145.711 18.1722L145.965 17.2369L146.186 16.2827L146.37 15.3143L146.516 14.327L146.619 13.3256L146.681 12.31V12.0549L146.827 12.5698L147.034 13.1839L147.274 13.7838L147.542 14.3648L147.839 14.927L148.159 15.4702L148.498 15.9945L148.855 16.5047L149.232 16.996L149.623 17.4683L150.028 17.9265L150.447 18.3658L150.87 18.791L151.303 19.1972L151.741 19.5893L152.184 19.9625L152.626 20.3215L153.069 20.6663L153.506 20.997L153.94 21.3134L154.368 21.611L154.787 21.8945L155.196 22.1637L155.441 22.3196V22.3149Z" fill="#FFD25D"/>
<path fill-rule="evenodd" clip-rule="evenodd" d="M145.913 6.68398L146.163 8.1814L146.285 9.22062L146.36 10.2551L146.384 11.2802L146.365 12.291L146.304 13.2925L146.2 14.2797L146.059 15.2528L145.876 16.207L145.659 17.1518L145.41 18.0776L145.122 18.9846L144.812 19.8726L144.468 20.7418L144.096 21.5874L143.701 22.414L143.282 23.2218L142.844 24.0012L142.383 24.757L141.902 25.4939L141.408 26.1977L140.9 26.8779L140.377 27.5345L139.845 28.1581L139.304 28.7533L138.753 29.3201L138.198 29.8539L137.638 30.3593L137.073 30.827L136.508 31.2663L135.943 31.6678L133.909 32.9999L134.601 31.1482L134.662 30.9592L134.719 30.7608L134.771 30.5577L134.818 30.3404L134.86 30.1184L134.898 29.887L134.931 29.646L134.964 29.3957L134.987 29.1406L135.011 28.8761L135.025 28.6068L135.039 28.3328L135.048 28.0494L135.058 27.7613L135.063 27.4637V27.1661V26.859L135.058 26.552L135.053 26.2355L135.044 25.9143L135.034 25.5931L135.025 25.2671L135.011 24.9365L134.997 24.6011L134.982 24.261L134.968 23.9209L134.95 23.576L134.935 23.2312L134.921 22.8864L134.902 22.5368L134.874 21.8897L135.42 21.4504L135.75 21.1244L136.051 20.7654L136.319 20.3686L136.564 19.9435L136.771 19.49L136.95 19.0082L137.087 18.5028L137.19 17.9737L137.251 17.4305L137.275 16.8731L137.251 16.3109L137.19 15.7677L137.087 15.2434L136.95 14.7379L136.771 14.2561L136.564 13.8026L136.319 13.3728L136.051 12.9807L135.599 12.4375L135.83 11.8092L135.957 11.4927L136.093 11.181L136.239 10.8787L136.399 10.5858L136.569 10.2976L136.748 10.0142L136.941 9.74496L137.143 9.48043L137.36 9.22535L137.586 8.97971L137.826 8.74353L138.08 8.51679L138.348 8.30422L138.626 8.1011L138.918 7.90742L139.224 7.72792L139.539 7.56259L139.874 7.40671L140.217 7.265L140.575 7.13746L140.947 7.02409L141.333 6.92016L141.733 6.83514L142.147 6.75956L142.576 6.70287L143.018 6.65564L143.475 6.62729L143.95 6.61312L144.435 6.6084L144.939 6.62729L145.913 6.68398Z" fill="black"/>
<path fill-rule="evenodd" clip-rule="evenodd" d="M145.415 7.2367C147.491 18.1958 140.825 27.9503 135.072 31.5403C135.901 29.4524 135.628 25.9049 135.468 22.159L135.807 21.8897L136.174 21.526L136.508 21.1245L136.809 20.6852L137.078 20.2128L137.308 19.7121L137.501 19.1877L137.652 18.6398L137.765 18.0682L137.831 17.4778L137.854 16.8731L137.831 16.2685L137.765 15.678L137.652 15.1064L137.501 14.5585L137.308 14.0342L137.078 13.5334L136.809 13.0658L136.508 12.6265L136.254 12.3242C137.402 9.05061 139.959 6.84936 145.41 7.24142L145.415 7.2367Z" fill="white"/>
<path fill-rule="evenodd" clip-rule="evenodd" d="M135.091 7.2981L134.756 7.676L134.441 8.06335L134.14 8.46487L133.852 8.87583L133.584 9.30097L133.33 9.73555L133.095 10.1796L132.878 10.6331L132.694 11.0582H132.756L132.803 11.0487H133.231L133.471 11.0771L133.707 11.1149L133.937 11.1716L134.163 11.2424L134.384 11.3274L134.601 11.4219L134.813 11.5306L135.015 11.6534L135.213 11.7857L135.406 11.9321L135.59 12.088L135.768 12.2533L135.938 12.4281L136.098 12.6123L136.253 12.806L136.399 13.0091L136.536 13.2217L136.668 13.439L136.79 13.6657L136.903 13.9019L137.006 14.1428L137.101 14.3884L137.185 14.6435L137.265 14.9033L137.331 15.1678L137.388 15.4371L137.435 15.7111L137.472 15.9898L137.501 16.2732L137.52 16.5613V17.1471L137.501 17.4352L137.472 17.7187L137.435 17.9974L137.388 18.2713L137.331 18.5406L137.265 18.8051L137.185 19.0649L137.101 19.32L137.006 19.5656L136.903 19.8065L136.79 20.0427L136.668 20.2695L136.536 20.4868L136.394 20.6993L136.249 20.9025L136.093 21.0961L135.933 21.2804L135.764 21.4551L135.585 21.6205L135.401 21.7763L135.208 21.9228L135.01 22.055L134.808 22.1779L134.596 22.2865L134.38 22.381L134.158 22.466L133.932 22.5369L133.702 22.5936L133.466 22.6313L133.226 22.655L132.982 22.6644L132.737 22.655L132.497 22.6313L132.261 22.5936L132.031 22.5369L131.805 22.466L131.583 22.381L131.367 22.2865L131.155 22.1779L130.953 22.055L130.755 21.9228L130.562 21.7763L130.378 21.6205L130.199 21.4551L130.03 21.2804L129.87 21.0961L129.715 20.9025L129.569 20.6993L129.432 20.4868L129.3 20.2695L129.178 20.0427L129.065 19.8065L128.961 19.5656L128.867 19.32L128.782 19.0649L128.702 18.8051L128.637 18.5406L128.58 18.2713L128.533 17.9974L128.495 17.7187L128.467 17.4352L128.448 17.1471V14.7049L128.462 13.9538L128.524 13.2028L128.622 12.4659L128.759 11.7384L128.928 11.0251L129.136 10.326L129.376 9.64108L129.649 8.97031L129.955 8.31843L130.294 7.68073L130.661 7.06192L131.056 6.462L131.485 5.88571L131.936 5.32831L132.417 4.79453L132.92 4.28436L133.452 3.79782L134.008 3.33489L134.587 2.90031L135.185 2.48934L135.806 2.10672L136.446 1.75244L137.105 1.4265L137.783 1.13363L138.475 0.869104L139.186 0.637641L139.911 0.439244L140.65 0.273914L141.399 0.146373L142.161 0.0518981L142.933 -0.00478671L143.719 -0.0236816L144.501 -0.00478671L145.273 0.0518981L146.035 0.146373L146.784 0.273914L147.523 0.439244L148.248 0.637641L148.959 0.869104L149.651 1.13363L150.329 1.4265L150.988 1.75244L151.628 2.10672L152.249 2.48934L152.847 2.90031L153.426 3.33489L153.982 3.79782L154.514 4.28436L155.017 4.79453L155.497 5.32831L155.949 5.88571L156.378 6.462L156.773 7.06192L157.14 7.68073L157.479 8.31843L157.785 8.97031C157.875 9.18287 157.959 9.40017 158.049 9.61273C158.524 10.7464 158.774 11.8329 158.906 13.1603V13.2028L158.972 13.9538L158.99 14.7049V15.1253L158.981 15.1537V15.2623L159.009 16.1362H157.766L157.804 15.4702V15.3426L157.814 15.319V15.267L157.799 14.9128L157.743 14.2798L157.658 13.6562L157.541 13.0422L157.39 12.4375L157.211 11.8471L157.004 11.266L156.768 10.6992L156.505 10.1465L156.218 9.60801L155.902 9.08368L155.563 8.57824L155.201 8.08697L154.815 7.61459L154.405 7.16112L153.977 6.72653L153.525 6.31084L153.054 5.91877L152.565 5.5456L152.056 5.19604L151.529 4.87011L150.988 4.56779L150.427 4.29381L149.853 4.04345L149.265 3.82144L148.662 3.62304L148.046 3.45299L147.419 3.31127L146.779 3.20263L146.13 3.12232L145.471 3.07509L144.802 3.06092L144.251 3.07036L143.705 3.10343L143.169 3.15539L142.637 3.23097L142.114 3.32545L141.596 3.43881L141.088 3.5758L140.589 3.73169L140.099 3.90646L139.619 4.10014L139.148 4.30798L138.687 4.53472L138.235 4.78035L137.797 5.04016L137.369 5.31414L136.955 5.60701L136.555 5.91405L136.164 6.23526L135.787 6.57065L135.425 6.92021L135.076 7.28393L135.091 7.2981Z" fill="black"/>
<path fill-rule="evenodd" clip-rule="evenodd" d="M158.398 15.5695C158.332 8.3375 152.273 2.49424 144.807 2.49424C138.664 2.49424 133.471 6.45273 131.791 11.885C132.172 11.7244 132.577 11.6394 132.996 11.6394C135.185 11.6394 136.96 13.9824 136.96 16.878C136.96 19.7737 135.185 22.1166 132.996 22.1166C130.807 22.1166 129.032 19.7737 129.032 16.878V14.7382C129.032 6.9251 135.609 0.590576 143.715 0.590576C151.821 0.590576 158.398 6.9251 158.398 14.7382C158.398 15.0216 158.388 15.3003 158.369 15.579H158.393L158.398 15.5695Z" fill="white"/>
<path d="M0 27.8605V4.76147H2.8292V17.9312L9.51853 11.1291H13.1715L6.80231 17.3361L13.8212 27.8605H10.3329L4.82517 19.3011L2.8292 21.2284V27.8605H0Z" fill="white"/>
<path d="M26.9458 25.7964C25.896 26.6892 24.8886 27.3174 23.9236 27.6906C22.9538 28.0543 21.9135 28.2386 20.8025 28.2386C18.9713 28.2386 17.5638 27.7945 16.5799 26.8923C15.6007 25.9948 15.1064 24.8422 15.1064 23.4487C15.1064 22.6268 15.29 21.8804 15.6619 21.2002C16.0338 20.5247 16.5187 19.9815 17.1212 19.5705C17.7285 19.1596 18.4017 18.8478 19.1596 18.6399C19.7104 18.4935 20.5483 18.3518 21.6687 18.2148C23.9518 17.9408 25.6324 17.6196 26.7104 17.237C26.7198 16.8496 26.7245 16.604 26.7245 16.5001C26.7245 15.3428 26.4562 14.5256 25.9195 14.0579C25.1993 13.4108 24.126 13.0943 22.7043 13.0943C21.3768 13.0943 20.393 13.3257 19.7574 13.7934C19.1266 14.261 18.6606 15.0877 18.3546 16.2781L15.596 15.8955C15.8502 14.7145 16.2598 13.7509 16.8341 13.0234C17.4084 12.2912 18.2416 11.7291 19.3338 11.337C20.4212 10.945 21.6828 10.7466 23.1186 10.7466C24.5544 10.7466 25.6983 10.9166 26.588 11.252C27.4777 11.5921 28.1321 12.0125 28.5557 12.5227C28.9747 13.0329 29.2619 13.6753 29.436 14.4547C29.5255 14.9365 29.5773 15.8104 29.5773 17.0669V20.8459C29.5773 23.4865 29.6385 25.154 29.7608 25.8484C29.8785 26.5475 30.1186 27.2182 30.4717 27.8607H27.5201C27.2329 27.2749 27.0399 26.5853 26.9552 25.7964H26.9458ZM26.7104 19.4619C25.6795 19.887 24.1448 20.2413 22.0971 20.5389C20.9343 20.7042 20.1105 20.8932 19.6303 21.1057C19.1502 21.3136 18.7736 21.6206 18.5147 22.0316C18.251 22.4331 18.1192 22.8819 18.1192 23.3778C18.1192 24.1384 18.4064 24.7666 18.976 25.2721C19.5456 25.7728 20.3788 26.0231 21.4804 26.0231C22.5819 26.0231 23.5375 25.7869 24.3849 25.3099C25.2322 24.8328 25.8583 24.1762 26.2538 23.3448C26.5598 22.7071 26.7104 21.7576 26.7104 20.5105V19.4666V19.4619Z" fill="white"/>
<path d="M36.5537 27.8605H33.9316V4.76147H36.7561V12.9997C37.9518 11.4975 39.4723 10.7464 41.3224 10.7464C42.3533 10.7464 43.3231 10.9543 44.2363 11.37C45.1543 11.7857 45.9028 12.3714 46.4959 13.1178C47.0843 13.8688 47.5504 14.7758 47.8846 15.8386C48.2236 16.8967 48.3883 18.0304 48.3883 19.2397C48.3883 22.1117 47.6822 24.3272 46.2652 25.8907C44.8577 27.4543 43.1583 28.2337 41.1812 28.2337C39.204 28.2337 37.6694 27.4118 36.549 25.7585V27.8558L36.5537 27.8605ZM36.5208 19.3673C36.5208 21.3748 36.7938 22.8203 37.3351 23.7131C38.2249 25.1775 39.43 25.9049 40.9458 25.9049C42.1839 25.9049 43.2525 25.3664 44.1516 24.2847C45.0507 23.2077 45.5026 21.6063 45.5026 19.4712C45.5026 17.3361 45.0695 15.6733 44.2081 14.6388C43.3466 13.6043 42.3015 13.08 41.0776 13.08C39.8537 13.08 38.7709 13.6185 37.8718 14.6955C36.9727 15.7725 36.5208 17.3313 36.5208 19.3673Z" fill="white"/>
<path d="M51.8438 8.02557V4.76147H54.6729V8.02557H51.8438ZM51.8438 27.8605V11.1291H54.6729V27.8605H51.8438Z" fill="white"/>
<path d="M58.9805 27.8607V11.1292H61.5225V13.5052C62.7512 11.6677 64.5165 10.7466 66.8278 10.7466C67.8352 10.7466 68.7579 10.9308 69.6006 11.2898C70.4479 11.6535 71.074 12.1306 71.493 12.7211C71.9166 13.3068 72.2038 14.006 72.378 14.8137C72.4815 15.3428 72.5333 16.2592 72.5333 17.5724V27.8607H69.7041V17.681C69.7041 16.5284 69.5958 15.664 69.3793 15.0877C69.1581 14.5161 68.7673 14.0626 68.2118 13.7225C67.6469 13.3777 66.9973 13.2076 66.2394 13.2076C65.0343 13.2076 63.9986 13.595 63.1183 14.3602C62.2428 15.1302 61.8097 16.5804 61.8097 18.725V27.8607H58.9852H58.9805Z" fill="white"/>
<path d="M87.7426 25.7964C86.6929 26.6892 85.6855 27.3174 84.7204 27.6906C83.7507 28.0543 82.7103 28.2386 81.5994 28.2386C79.7682 28.2386 78.3606 27.7945 77.3768 26.8923C76.3976 25.9948 75.9033 24.8422 75.9033 23.4487C75.9033 22.6268 76.0869 21.8804 76.4588 21.2002C76.8307 20.5247 77.3156 19.9815 77.9181 19.5705C78.5254 19.1596 79.1986 18.8478 79.9565 18.6399C80.5072 18.4935 81.3452 18.3518 82.4655 18.2148C84.7487 17.9408 86.4293 17.6196 87.5073 17.237C87.5167 16.8496 87.5214 16.604 87.5214 16.5001C87.5214 15.3428 87.2531 14.5256 86.7164 14.0579C85.9962 13.4108 84.9229 13.0943 83.5012 13.0943C82.1737 13.0943 81.1898 13.3257 80.5543 13.7934C79.9235 14.261 79.4575 15.0877 79.1515 16.2781L76.3929 15.8955C76.6471 14.7145 77.0567 13.7509 77.631 13.0234C78.2053 12.2912 79.0385 11.7291 80.1306 11.337C81.2181 10.945 82.4797 10.7466 83.9155 10.7466C85.3512 10.7466 86.4952 10.9166 87.3849 11.252C88.2746 11.5921 88.9289 12.0125 89.3526 12.5227C89.7716 13.0329 90.0587 13.6753 90.2329 14.4547C90.3223 14.9365 90.3741 15.8104 90.3741 17.0669V20.8459C90.3741 23.4865 90.4353 25.154 90.5577 25.8484C90.6754 26.5475 90.9155 27.2182 91.2685 27.8607H88.317C88.0298 27.2749 87.8368 26.5853 87.7521 25.7964H87.7426ZM87.5073 19.4619C86.4763 19.887 84.9417 20.2413 82.8939 20.5389C81.7312 20.7042 80.9074 20.8932 80.4272 21.1057C79.947 21.3136 79.5704 21.6206 79.3115 22.0316C79.0479 22.4331 78.9161 22.8819 78.9161 23.3778C78.9161 24.1384 79.2033 24.7666 79.7729 25.2721C80.3425 25.7728 81.1757 26.0231 82.2773 26.0231C83.3788 26.0231 84.3344 25.7869 85.1818 25.3099C86.0291 24.8328 86.6552 24.1762 87.0506 23.3448C87.3566 22.7071 87.5073 21.7576 87.5073 20.5105V19.4666V19.4619Z" fill="white"/>
<path d="M100.914 25.3193L101.324 27.8276C100.533 27.993 99.8174 28.0827 99.1913 28.0827C98.1604 28.0827 97.3695 27.9221 96.7999 27.5914C96.235 27.2702 95.8396 26.8404 95.6089 26.3066C95.3783 25.7775 95.2606 24.6627 95.2606 22.9622V13.3352H93.1846V11.1292H95.2606V6.98179L98.0756 5.28125V11.1245H100.914V13.3305H98.0756V23.1133C98.0756 23.9258 98.1227 24.4407 98.2216 24.6722C98.3251 24.9036 98.4852 25.0879 98.7112 25.2249C98.9371 25.3571 99.2572 25.428 99.6762 25.428C99.9916 25.428 100.406 25.3902 100.919 25.3146L100.914 25.3193Z" fill="white"/>
<path d="M114.561 25.7964C113.511 26.6892 112.504 27.3174 111.539 27.6906C110.569 28.0543 109.529 28.2386 108.418 28.2386C106.587 28.2386 105.179 27.7945 104.195 26.8923C103.216 25.9948 102.722 24.8422 102.722 23.4487C102.722 22.6268 102.905 21.8804 103.277 21.2002C103.649 20.5247 104.134 19.9815 104.736 19.5705C105.344 19.1596 106.017 18.8478 106.775 18.6399C107.326 18.4935 108.164 18.3518 109.284 18.2148C111.567 17.9408 113.248 17.6196 114.326 17.237C114.335 16.8496 114.34 16.604 114.34 16.5001C114.34 15.3428 114.071 14.5256 113.535 14.0579C112.815 13.4108 111.741 13.0943 110.32 13.0943C108.992 13.0943 108.008 13.3257 107.373 13.7934C106.742 14.261 106.276 15.0877 105.97 16.2781L103.211 15.8955C103.465 14.7145 103.875 13.7509 104.449 13.0234C105.024 12.2912 105.857 11.7291 106.949 11.337C108.036 10.945 109.298 10.7466 110.734 10.7466C112.17 10.7466 113.314 10.9166 114.203 11.252C115.093 11.5921 115.747 12.0125 116.171 12.5227C116.59 13.0329 116.877 13.6753 117.051 14.4547C117.141 14.9365 117.192 15.8104 117.192 17.0669V20.8459C117.192 23.4865 117.254 25.154 117.376 25.8484C117.494 26.5475 117.734 27.2182 118.087 27.8607H115.135C114.848 27.2749 114.655 26.5853 114.57 25.7964H114.561ZM114.326 19.4619C113.295 19.887 111.76 20.2413 109.712 20.5389C108.55 20.7042 107.726 20.8932 107.246 21.1057C106.765 21.3136 106.389 21.6206 106.13 22.0316C105.866 22.4331 105.734 22.8819 105.734 23.3778C105.734 24.1384 106.022 24.7666 106.591 25.2721C107.161 25.7728 107.994 26.0231 109.096 26.0231C110.197 26.0231 111.153 25.7869 112 25.3099C112.847 24.8328 113.474 24.1762 113.869 23.3448C114.175 22.7071 114.326 21.7576 114.326 20.5105V19.4666V19.4619Z" fill="white"/>
</g>
<defs>
<clipPath id="clip0_2_7507">
<rect width="159" height="33" fill="white"/>
</clipPath>
</defs>
</svg>
