<svg width="198" height="41" viewBox="0 0 198 41" fill="none" xmlns="http://www.w3.org/2000/svg">
<g clip-path="url(#clip0_2_6966)">
<path fill-rule="evenodd" clip-rule="evenodd" d="M182.964 8.21045L182.73 9.70701L182.642 10.5932L182.612 11.4618L182.636 12.3069L182.712 13.1344L182.835 13.9443L182.999 14.7308L183.216 15.4996L183.468 16.2449L183.755 16.9668L184.084 17.6711L184.441 18.3519L184.828 19.0092L185.239 19.6489L185.678 20.2651L186.141 20.8638L186.616 21.4448L187.114 22.0023L187.624 22.5364L188.146 23.0528L188.68 23.5517L189.213 24.033L189.758 24.4966L190.303 24.9368L190.849 25.3593L191.388 25.7643L191.921 26.1516L192.449 26.5155L192.971 26.8676L193.475 27.2021L193.961 27.5132L195.339 28.3759L195.632 26.7796L195.714 26.1692L195.767 25.5295L195.796 24.8546L195.802 24.1562L195.779 23.4285L195.732 22.6831L195.656 21.9202L195.556 21.1396L195.421 20.3532L195.263 19.5609L195.069 18.7627L194.847 17.9645L194.595 17.1664L194.307 16.3858L193.985 15.6111L193.633 14.854L193.24 14.1145L192.818 13.3985L192.355 12.706L191.851 12.0546L191.306 11.4325L190.726 10.8514L190.098 10.3115L189.43 9.82439L188.721 9.39596L187.964 9.02035L187.167 8.71517L186.323 8.47455L185.444 8.31022L184.518 8.22219L182.964 8.21045Z" fill="white"/>
<path fill-rule="evenodd" clip-rule="evenodd" d="M194.435 27.4252L194.072 28.4698L193.873 28.9804L193.662 29.4793L193.427 29.9664L193.181 30.4476L192.917 30.9113L192.642 31.369L192.349 31.8092L192.044 32.2376L191.727 32.6543L191.393 33.0593L191.047 33.4466L190.684 33.8222L190.314 34.1802L189.927 34.5265L189.535 34.8552L189.124 35.1662L188.708 35.4597L188.274 35.7414L187.835 35.9996L187.389 36.2461L186.926 36.4691L186.463 36.6745L185.982 36.8565L185.502 37.0208L185.003 37.1675L184.505 37.2908L184.001 37.3905L183.485 37.4727L182.963 37.5314L182.436 37.5666L181.914 37.5783L181.656 37.5725L181.404 37.5666L181.152 37.5548L180.906 37.5372L180.659 37.5138L180.413 37.4844L180.167 37.4492L179.921 37.4081L179.68 37.367L179.44 37.3201L179.2 37.2673L178.959 37.2086L178.725 37.144L178.49 37.0736L178.262 37.0032L178.027 36.9269L177.799 36.8447L177.57 36.7567L177.347 36.6686L177.125 36.5747L176.902 36.475L176.685 36.3693L176.468 36.2637L176.251 36.1522L176.04 36.0348L175.829 35.9116L175.618 35.7883L175.413 35.6592L175.213 35.5301L175.008 35.3951L174.809 35.2542L173.988 34.6498L174.551 33.9924L175.196 33.1884L175.823 32.355L176.433 31.4864L177.019 30.5826L177.588 29.6495L178.133 28.687L178.649 27.701L179.135 26.6857L179.592 25.641L180.015 24.5729L180.401 23.4813L180.753 22.3662L181.064 21.2276L181.334 20.0715L181.556 18.8918L181.732 17.7004L181.855 16.4856L181.932 15.259L181.703 8.30435L183.086 8.21045L183.532 15.3998L183.778 16.1276L184.059 16.8318L184.382 17.5244L184.728 18.1875L185.109 18.8331L185.513 19.4611L185.947 20.0715L186.398 20.6583L186.873 21.2276L187.36 21.7734L187.864 22.3075L188.38 22.8181L188.902 23.3052L189.435 23.7806L189.969 24.2384L190.508 24.6727L191.047 25.0952L191.581 25.4943L192.114 25.8758L192.636 26.2396L193.152 26.5918L193.656 26.9204L194.435 27.4252Z" fill="white"/>
<path fill-rule="evenodd" clip-rule="evenodd" d="M181.703 8.30435L182.014 10.1648L182.166 11.4559L182.26 12.7412L182.29 14.0148L182.266 15.2707L182.19 16.5149L182.061 17.7415L181.885 18.9505L181.656 20.136L181.387 21.3098L181.076 22.4601L180.719 23.5869L180.332 24.6903L179.904 25.7701L179.441 26.8207L178.948 27.8477L178.426 28.8513L177.881 29.8197L177.307 30.7587L176.709 31.6742L176.093 32.5487L175.46 33.3938L174.809 34.2096L174.147 34.9843L173.473 35.7238L172.787 36.428L172.095 37.0912L171.398 37.7192L170.694 38.3002L169.991 38.846L169.287 39.3449L166.755 40.9999L167.617 38.6993L167.693 38.4645L167.763 38.218L167.828 37.9657L167.886 37.6957L167.939 37.4199L167.986 37.1323L168.027 36.833L168.068 36.5219L168.097 36.205L168.127 35.8764L168.144 35.5418L168.162 35.2014L168.174 34.8493L168.185 34.4913L168.191 34.1216V33.7518V33.3703L168.185 32.9889L168.179 32.5956L168.168 32.1966L168.156 31.7975L168.144 31.3925L168.127 30.9817L168.109 30.565L168.091 30.1425L168.074 29.7199L168.05 29.2915L168.033 28.863L168.015 28.4346L167.992 28.0003L167.957 27.1963L168.637 26.6505L169.047 26.2455L169.422 25.7995L169.756 25.3065L170.061 24.7783L170.319 24.2149L170.542 23.6163L170.712 22.9883L170.841 22.331L170.917 21.6561L170.946 20.9635L170.917 20.2651L170.841 19.5902L170.712 18.9388L170.542 18.3108L170.319 17.7122L170.061 17.1488L169.756 16.6147L169.422 16.1276L168.859 15.4526L169.147 14.6721L169.305 14.2789L169.475 13.8915L169.657 13.5159L169.856 13.152L170.067 12.794L170.29 12.4419L170.53 12.1074L170.782 11.7787L171.052 11.4618L171.333 11.1566L171.632 10.8632L171.949 10.5815L172.283 10.3174L172.629 10.065L172.992 9.82439L173.373 9.60137L173.766 9.39596L174.182 9.20229L174.61 9.02622L175.056 8.86776L175.519 8.72691L176 8.5978L176.498 8.49216L177.014 8.39825L177.547 8.32783L178.098 8.26914L178.667 8.23392L179.259 8.21632L179.863 8.21045L180.49 8.23392L181.703 8.30435Z" fill="white"/>
<path fill-rule="evenodd" clip-rule="evenodd" d="M168.227 9.06747L167.81 9.53698L167.418 10.0182L167.042 10.5171L166.685 11.0277L166.351 11.5559L166.034 12.0958L165.741 12.6475L165.471 13.2109L165.243 13.7391H165.319L165.378 13.7274H165.911L166.21 13.7626L166.503 13.8095L166.79 13.8799L167.072 13.968L167.347 14.0736L167.617 14.191L167.881 14.326L168.133 14.4786L168.379 14.6429L168.619 14.8248L168.848 15.0185L169.071 15.2239L169.282 15.4411L169.481 15.67L169.675 15.9106L169.856 16.1629L170.026 16.427L170.19 16.697L170.343 16.9787L170.484 17.2722L170.612 17.5715L170.73 17.8767L170.835 18.1936L170.935 18.5164L171.017 18.845L171.087 19.1796L171.146 19.5199L171.193 19.8662L171.228 20.2183L171.251 20.5763V21.3041L171.228 21.6621L171.193 22.0142L171.146 22.3605L171.087 22.7009L171.017 23.0354L170.935 23.3641L170.835 23.6868L170.73 24.0038L170.612 24.309L170.484 24.6083L170.343 24.9017L170.19 25.1834L170.026 25.4534L169.85 25.7175L169.669 25.9698L169.475 26.2105L169.276 26.4394L169.065 26.6565L168.842 26.8619L168.613 27.0556L168.373 27.2375L168.127 27.4018L167.875 27.5544L167.611 27.6894L167.341 27.8068L167.066 27.9124L166.784 28.0005L166.497 28.0709L166.204 28.1179L165.905 28.1472L165.6 28.1589L165.296 28.1472L164.997 28.1179L164.703 28.0709L164.416 28.0005L164.135 27.9124L163.859 27.8068L163.59 27.6894L163.326 27.5544L163.074 27.4018L162.828 27.2375L162.587 27.0556L162.359 26.8619L162.136 26.6565L161.925 26.4394L161.725 26.2105L161.532 25.9698L161.35 25.7175L161.18 25.4534L161.016 25.1834L160.864 24.9017L160.723 24.6083L160.594 24.309L160.477 24.0038L160.371 23.6868L160.272 23.3641L160.19 23.0354L160.119 22.7009L160.061 22.3605L160.014 22.0142L159.979 21.6621L159.955 21.3041V18.2699L159.973 17.3367L160.049 16.4036L160.172 15.488L160.342 14.5842L160.553 13.698L160.811 12.8294L161.11 11.9784L161.45 11.1451L161.831 10.3351L162.253 9.54285L162.71 8.77402L163.203 8.02868L163.736 7.31267L164.299 6.62014L164.897 5.95696L165.524 5.32312L166.187 4.71863L166.878 4.14348L167.599 3.60354L168.344 3.09295L169.118 2.61757L169.915 2.1774L170.736 1.77245L171.58 1.40858L172.441 1.07992L173.327 0.792346L174.229 0.545853L175.15 0.340443L176.082 0.181983L177.032 0.0646052L177.993 -0.00582135L178.972 -0.0292969L179.945 -0.00582135L180.906 0.0646052L181.856 0.181983L182.788 0.340443L183.709 0.545853L184.611 0.792346L185.496 1.07992L186.358 1.40858L187.202 1.77245L188.023 2.1774L188.82 2.61757L189.594 3.09295L190.339 3.60354L191.06 4.14348L191.751 4.71863L192.414 5.32312L193.041 5.95696L193.639 6.62014L194.202 7.31267L194.735 8.02868L195.228 8.77402L195.685 9.54285L196.107 10.3351L196.488 11.1451C196.599 11.4092 196.705 11.6791 196.816 11.9432C197.408 13.3518 197.719 14.7016 197.883 16.3507V16.4036L197.965 17.3367L197.989 18.2699V18.7922L197.977 18.8274V18.9624L198.012 20.0481H196.465L196.511 19.2206V19.0622L196.523 19.0328V18.9683L196.506 18.5281L196.435 17.7417L196.33 16.967L196.183 16.204L195.996 15.4528L195.773 14.7192L195.515 13.9973L195.222 13.2931L194.893 12.6064L194.536 11.9374L194.143 11.2859L193.721 10.6579L193.27 10.0476L192.789 9.46068L192.279 8.89727L191.746 8.35733L191.183 7.84087L190.597 7.35375L189.987 6.89011L189.354 6.45582L188.697 6.05086L188.023 5.67526L187.325 5.33486L186.61 5.02381L185.878 4.74797L185.127 4.50148L184.359 4.2902L183.58 4.11413L182.782 3.97915L181.973 3.87938L181.153 3.82069L180.32 3.80308L179.634 3.81482L178.954 3.8559L178.286 3.92046L177.624 4.01436L176.973 4.13174L176.328 4.27259L175.695 4.44279L175.074 4.63646L174.464 4.85361L173.866 5.09424L173.28 5.35247L172.705 5.63417L172.142 5.93935L171.597 6.26214L171.064 6.60254L170.548 6.96641L170.05 7.34789L169.563 7.74697L169.094 8.16366L168.643 8.59796L168.209 9.04986L168.227 9.06747Z" fill="white"/>
<path fill-rule="evenodd" clip-rule="evenodd" d="M183.585 8.93834C181.82 18.2346 189.928 24.1563 194.822 27.1964C195.989 21.7618 193.416 8.59208 183.585 8.93834Z" fill="black"/>
<path fill-rule="evenodd" clip-rule="evenodd" d="M193.568 27.7243C191.81 33.0532 187.255 36.8504 181.909 36.8504C179.37 36.8504 177.014 35.9935 175.05 34.5263L175.108 34.4559L175.765 33.6342L176.404 32.7774L177.025 31.8912L177.629 30.9698L178.21 30.019L178.766 29.0389L179.294 28.0294L179.792 26.9907L180.261 25.9225L180.695 24.8309L181.094 23.7158L181.451 22.5773L181.768 21.4152L182.043 20.2297L182.272 19.0266L182.454 17.8L182.583 16.5558L182.659 15.294V14.9771L182.841 15.6168L183.099 16.3797L183.398 17.1251L183.732 17.8469L184.101 18.5453L184.5 19.2203L184.922 19.8717L185.367 20.5055L185.836 21.1159L186.323 21.7028L186.827 22.2721L187.349 22.8179L187.876 23.3461L188.416 23.8508L188.961 24.3379L189.512 24.8016L190.063 25.2476L190.614 25.676L191.159 26.0868L191.698 26.4801L192.232 26.8498L192.754 27.2019L193.264 27.5365L193.568 27.7301V27.7243Z" fill="#FFD25D"/>
<path fill-rule="evenodd" clip-rule="evenodd" d="M181.082 8.99064C183.667 22.6064 175.367 34.7257 168.203 39.186C169.235 36.592 168.895 32.1845 168.696 27.5304L169.118 27.1959L169.575 26.744L169.991 26.2451L170.366 25.6993L170.7 25.1125L170.988 24.4904L171.228 23.8389L171.416 23.1581L171.556 22.448L171.638 21.7144L171.668 20.9632L171.638 20.2119L171.556 19.4783L171.416 18.7682L171.228 18.0874L170.988 17.436L170.7 16.8139L170.366 16.2328L169.991 15.687L169.675 15.3114C171.105 11.2443 174.288 8.50939 181.076 8.99651L181.082 8.99064Z" fill="black"/>
<path fill-rule="evenodd" clip-rule="evenodd" d="M197.25 19.3436C197.168 10.3584 189.623 3.09856 180.326 3.09856C172.676 3.09856 166.21 8.01668 164.117 14.7659C164.592 14.5663 165.096 14.4607 165.618 14.4607C168.343 14.4607 170.553 17.3717 170.553 20.9693C170.553 24.5669 168.343 27.4779 165.618 27.4779C162.892 27.4779 160.682 24.5669 160.682 20.9693V18.3107C160.682 8.60357 168.871 0.733398 178.966 0.733398C189.06 0.733398 197.25 8.60357 197.25 18.3107C197.25 18.6628 197.238 19.0091 197.215 19.3554H197.244L197.25 19.3436Z" fill="black"/>
<path d="M0 34.6148V5.91602H3.52315V22.2785L11.8533 13.8273H16.4023L8.47081 21.539L17.2113 34.6148H12.8674L6.0087 23.9804L3.52315 26.3749V34.6148H0Z" fill="black"/>
<path d="M33.5548 32.0498C32.2476 33.159 30.9931 33.9396 29.7913 34.4032C28.5837 34.8551 27.2882 35.084 25.9047 35.084C23.6243 35.084 21.8716 34.5324 20.6464 33.4114C19.427 32.2963 18.8115 30.8643 18.8115 29.133C18.8115 28.1118 19.0401 27.1845 19.5033 26.3394C19.9664 25.5001 20.5702 24.8252 21.3205 24.3146C22.0767 23.804 22.915 23.4167 23.8588 23.1585C24.5447 22.9765 25.5882 22.8005 26.9834 22.6303C29.8265 22.2899 31.9193 21.8908 33.2617 21.4154C33.2734 20.9342 33.2793 20.629 33.2793 20.4999C33.2793 19.062 32.9452 18.0467 32.2769 17.4656C31.38 16.6616 30.0434 16.2684 28.273 16.2684C26.6199 16.2684 25.3947 16.556 24.6033 17.137C23.8178 17.718 23.2374 18.7451 22.8564 20.224L19.4212 19.7486C19.7377 18.2814 20.2477 17.0842 20.9629 16.1804C21.6781 15.2707 22.7157 14.5723 24.0757 14.0852C25.4299 13.5981 27.0009 13.3516 28.7889 13.3516C30.5769 13.3516 32.0014 13.5628 33.1093 13.9795C34.2173 14.4021 35.0321 14.9244 35.5597 15.5583C36.0814 16.1921 36.439 16.9903 36.6559 17.9586C36.7673 18.5573 36.8318 19.643 36.8318 21.2041V25.8992C36.8318 29.1799 36.908 31.2516 37.0604 32.1144C37.207 32.983 37.5059 33.8163 37.9456 34.6145H34.27C33.9124 33.8868 33.6721 33.0299 33.5666 32.0498H33.5548ZM33.2617 24.1796C31.9779 24.7078 30.0669 25.148 27.5168 25.5178C26.0689 25.7232 25.043 25.9579 24.4451 26.222C23.8471 26.4802 23.3781 26.8617 23.0557 27.3723C22.7274 27.8712 22.5633 28.4287 22.5633 29.045C22.5633 29.9898 22.9209 30.7704 23.6302 31.3984C24.3395 32.0205 25.3771 32.3315 26.7489 32.3315C28.1206 32.3315 29.3106 32.0381 30.3658 31.4453C31.421 30.8526 32.2007 30.0368 32.6931 29.0039C33.0741 28.2116 33.2617 27.0319 33.2617 25.4825V24.1855V24.1796Z" fill="black"/>
<path d="M45.5191 34.6148H42.2539V5.91602H45.7712V16.1513C47.2602 14.285 49.1537 13.3519 51.4575 13.3519C52.7413 13.3519 53.9489 13.6101 55.0862 14.1266C56.2293 14.643 57.1614 15.3708 57.9 16.2981C58.6328 17.2312 59.2131 18.358 59.6293 19.6785C60.0514 20.9932 60.2566 22.4017 60.2566 23.9041C60.2566 27.4724 59.3772 30.2249 57.6127 32.1675C55.86 34.1101 53.7437 35.0785 51.2816 35.0785C48.8195 35.0785 46.9085 34.0573 45.5133 32.0032V34.609L45.5191 34.6148ZM45.4781 24.0626C45.4781 26.5569 45.8181 28.3527 46.4922 29.462C47.6002 31.2813 49.1009 32.1851 50.9885 32.1851C52.5303 32.1851 53.861 31.5161 54.9806 30.1721C56.1003 28.834 56.6631 26.8444 56.6631 24.1917C56.6631 21.539 56.1238 19.4731 55.051 18.1878C53.9782 16.9026 52.6768 16.2511 51.1527 16.2511C49.6285 16.2511 48.2802 16.9202 47.1605 18.2583C46.0409 19.5964 45.4781 21.5331 45.4781 24.0626Z" fill="black"/>
<path d="M64.5596 9.97141V5.91602H68.0827V9.97141H64.5596ZM64.5596 34.6148V13.8273H68.0827V34.6148H64.5596Z" fill="black"/>
<path d="M73.4473 34.6145V13.8269H76.6128V16.779C78.1428 14.496 80.3412 13.3516 83.2195 13.3516C84.474 13.3516 85.623 13.5804 86.6723 14.0265C87.7275 14.4784 88.5071 15.0711 89.0289 15.8048C89.5565 16.5325 89.914 17.4011 90.1309 18.4047C90.2599 19.062 90.3244 20.2005 90.3244 21.8321V34.6145H86.8012V21.9671C86.8012 20.5351 86.6664 19.4611 86.3968 18.7451C86.1212 18.0349 85.6347 17.4715 84.9429 17.049C84.2395 16.6205 83.4305 16.4092 82.4867 16.4092C80.986 16.4092 79.6963 16.8905 78.6001 17.8413C77.5097 18.7979 76.9704 20.5996 76.9704 23.2641V34.6145H73.4531H73.4473Z" fill="black"/>
<path d="M109.265 32.0498C107.958 33.159 106.703 33.9396 105.501 34.4032C104.294 34.8551 102.998 35.084 101.615 35.084C99.3343 35.084 97.5815 34.5324 96.3563 33.4114C95.137 32.2963 94.5215 30.8643 94.5215 29.133C94.5215 28.1118 94.7501 27.1845 95.2132 26.3394C95.6763 25.5001 96.2801 24.8252 97.0305 24.3146C97.7867 23.804 98.625 23.4167 99.5688 23.1585C100.255 22.9765 101.298 22.8005 102.693 22.6303C105.536 22.2899 107.629 21.8908 108.972 21.4154C108.983 20.9342 108.989 20.629 108.989 20.4999C108.989 19.062 108.655 18.0467 107.987 17.4656C107.09 16.6616 105.753 16.2684 103.983 16.2684C102.33 16.2684 101.105 16.556 100.313 17.137C99.5278 17.718 98.9474 18.7451 98.5664 20.224L95.1311 19.7486C95.4477 18.2814 95.9577 17.0842 96.6729 16.1804C97.3881 15.2707 98.4257 14.5723 99.7857 14.0852C101.14 13.5981 102.711 13.3516 104.499 13.3516C106.287 13.3516 107.711 13.5628 108.819 13.9795C109.927 14.4021 110.742 14.9244 111.27 15.5583C111.791 16.1921 112.149 16.9903 112.366 17.9586C112.477 18.5573 112.542 19.643 112.542 21.2041V25.8992C112.542 29.1799 112.618 31.2516 112.77 32.1144C112.917 32.983 113.216 33.8163 113.656 34.6145H109.98C109.622 33.8868 109.382 33.0299 109.277 32.0498H109.265ZM108.972 24.1796C107.688 24.7078 105.777 25.148 103.227 25.5178C101.779 25.7232 100.753 25.9579 100.155 26.222C99.5571 26.4802 99.0881 26.8617 98.7657 27.3723C98.4374 27.8712 98.2733 28.4287 98.2733 29.045C98.2733 29.9898 98.6309 30.7704 99.3402 31.3984C100.049 32.0205 101.087 32.3315 102.459 32.3315C103.831 32.3315 105.021 32.0381 106.076 31.4453C107.131 30.8526 107.911 30.0368 108.403 29.0039C108.784 28.2116 108.972 27.0319 108.972 25.4825V24.1855V24.1796Z" fill="black"/>
<path d="M125.667 31.4573L126.177 34.5737C125.192 34.7791 124.301 34.8906 123.521 34.8906C122.237 34.8906 121.252 34.6911 120.543 34.2802C119.84 33.8812 119.347 33.3471 119.06 32.6839C118.773 32.0266 118.626 30.6415 118.626 28.5287V16.568H116.041V13.8272H118.626V8.67432L122.132 6.56152V13.8213H125.667V16.5621H122.132V28.7165C122.132 29.726 122.19 30.3657 122.314 30.6533C122.442 30.9409 122.642 31.1697 122.923 31.3399C123.205 31.5043 123.603 31.5923 124.125 31.5923C124.518 31.5923 125.034 31.5453 125.673 31.4514L125.667 31.4573Z" fill="black"/>
<path d="M142.661 32.0498C141.354 33.159 140.1 33.9396 138.898 34.4032C137.69 34.8551 136.395 35.084 135.011 35.084C132.731 35.084 130.978 34.5324 129.753 33.4114C128.533 32.2963 127.918 30.8643 127.918 29.133C127.918 28.1118 128.147 27.1845 128.61 26.3394C129.073 25.5001 129.677 24.8252 130.427 24.3146C131.183 23.804 132.021 23.4167 132.965 23.1585C133.651 22.9765 134.695 22.8005 136.09 22.6303C138.933 22.2899 141.026 21.8908 142.368 21.4154C142.38 20.9342 142.386 20.629 142.386 20.4999C142.386 19.062 142.052 18.0467 141.383 17.4656C140.486 16.6616 139.15 16.2684 137.379 16.2684C135.726 16.2684 134.501 16.556 133.71 17.137C132.924 17.718 132.344 18.7451 131.963 20.224L128.528 19.7486C128.844 18.2814 129.354 17.0842 130.069 16.1804C130.785 15.2707 131.822 14.5723 133.182 14.0852C134.536 13.5981 136.107 13.3516 137.895 13.3516C139.683 13.3516 141.108 13.5628 142.216 13.9795C143.324 14.4021 144.139 14.9244 144.666 15.5583C145.188 16.1921 145.545 16.9903 145.762 17.9586C145.874 18.5573 145.938 19.643 145.938 21.2041V25.8992C145.938 29.1799 146.014 31.2516 146.167 32.1144C146.313 32.983 146.612 33.8163 147.052 34.6145H143.376C143.019 33.8868 142.779 33.0299 142.673 32.0498H142.661ZM142.368 24.1796C141.084 24.7078 139.173 25.148 136.623 25.5178C135.175 25.7232 134.149 25.9579 133.551 26.222C132.954 26.4802 132.485 26.8617 132.162 27.3723C131.834 27.8712 131.67 28.4287 131.67 29.045C131.67 29.9898 132.027 30.7704 132.737 31.3984C133.446 32.0205 134.484 32.3315 135.855 32.3315C137.227 32.3315 138.417 32.0381 139.472 31.4453C140.527 30.8526 141.307 30.0368 141.8 29.0039C142.181 28.2116 142.368 27.0319 142.368 25.4825V24.1855V24.1796Z" fill="black"/>
</g>
<defs>
<clipPath id="clip0_2_6966">
<rect width="198" height="41" fill="white"/>
</clipPath>
</defs>
</svg>
