<svg width="359" height="847" viewBox="0 0 359 847" fill="none" xmlns="http://www.w3.org/2000/svg">
<mask id="mask0_2_7346" style="mask-type:alpha" maskUnits="userSpaceOnUse" x="0" y="0" width="642" height="847">
<rect width="642" height="847" fill="#D9D9D9"/>
</mask>
<g mask="url(#mask0_2_7346)">
<path d="M52.4014 -252.717C125.353 -337.981 183.782 -342.054 215.213 -325.525C448.428 -177.95 407.785 -92.6147 336.202 -62.7134C264.619 -32.8121 199.067 68.6938 190.877 134.519C182.686 200.344 184.128 242.466 133.047 234.965C92.1817 228.963 98.4794 245 17.7863 293.514C-100.633 352.768 -173.602 205.576 -142.941 145.348C-112.28 85.1191 -135.588 51.3664 -177.738 -101.218C-246.762 -351.089 -33.8615 -151.895 52.4014 -252.717Z" stroke="#EAEAEA"/>
<path d="M43.3852 -279.252C126.899 -376.862 193.787 -381.524 229.77 -362.602C496.751 -193.661 450.223 -95.9696 368.276 -61.739C286.328 -27.5085 211.286 88.694 201.91 164.05C192.534 239.405 194.184 287.626 135.707 279.038C88.9253 272.168 96.1347 290.527 3.75845 346.065C-131.806 413.898 -215.341 245.395 -180.24 176.446C-145.14 107.497 -171.822 68.8578 -220.075 -105.819C-299.093 -391.867 -55.3673 -163.833 43.3852 -279.252Z" stroke="#EAEAEA"/>
<path d="M34.367 -305.79C128.444 -415.745 203.792 -420.996 244.325 -399.681C545.073 -209.372 492.661 -99.3256 400.349 -60.7656C308.037 -22.2056 223.504 108.694 212.942 193.58C202.379 278.467 204.239 332.786 138.365 323.113C85.6669 315.374 93.7882 336.054 -10.2716 398.616C-162.982 475.029 -257.082 285.215 -217.542 207.545C-178.002 129.876 -208.059 86.3489 -262.415 -110.421C-351.427 -432.648 -76.8755 -175.772 34.367 -305.79Z" stroke="#EAEAEA"/>
<path d="M25.3497 -332.327C129.989 -454.627 213.797 -460.468 258.882 -436.76C593.397 -225.084 535.099 -102.681 432.423 -59.7917C329.747 -16.9023 235.722 128.694 223.974 223.112C212.226 317.529 214.294 377.947 141.025 367.188C82.4095 358.58 91.4427 381.582 -24.3007 451.168C-194.157 536.16 -298.822 325.034 -254.843 238.644C-210.864 152.254 -244.295 103.84 -304.754 -115.022C-403.761 -473.428 -98.3828 -187.711 25.3497 -332.327Z" stroke="#EAEAEA"/>
<path d="M16.3315 -358.864C131.534 -493.509 223.801 -499.941 273.437 -473.839C641.719 -240.796 577.537 -106.037 464.497 -58.8182C351.456 -11.5994 247.94 148.694 235.006 252.642C222.072 356.59 224.349 423.108 143.683 411.262C79.1511 401.785 89.0961 427.109 -38.3308 503.72C-225.333 597.291 -340.564 364.853 -292.145 269.743C-243.726 174.632 -280.532 121.332 -347.094 -119.624C-456.095 -514.208 -119.891 -199.65 16.3315 -358.864Z" stroke="#EAEAEA"/>
<path d="M7.31341 -385.4C133.078 -532.392 233.806 -539.413 287.993 -510.918C690.042 -256.507 619.975 -109.393 496.57 -57.8443C373.165 -6.29605 260.157 168.695 246.038 282.174C231.918 395.653 234.403 468.269 146.342 455.337C75.8928 444.991 86.7497 472.637 -52.3609 556.272C-256.509 658.423 -382.305 404.673 -329.447 300.842C-276.589 197.011 -316.769 138.823 -389.434 -124.225C-508.429 -554.988 -141.399 -211.589 7.31341 -385.4Z" stroke="#EAEAEA"/>
<path d="M-1.70389 -411.938C134.624 -571.275 243.811 -578.886 302.549 -547.998C738.366 -272.219 662.414 -112.749 528.644 -56.8714C394.874 -0.993787 272.376 188.694 257.07 311.704C241.765 434.714 244.459 513.429 149.001 499.41C72.6355 488.196 84.4042 518.163 -66.3899 608.823C-287.684 719.553 -424.045 444.492 -366.748 331.94C-309.45 219.388 -353.005 156.313 -431.773 -128.827C-560.762 -595.77 -162.906 -223.528 -1.70389 -411.938Z" stroke="#EAEAEA"/>
<path d="M-10.722 -438.475C136.168 -610.157 253.816 -618.357 317.104 -585.076C786.688 -287.93 704.852 -116.104 560.718 -55.897C416.583 4.31003 284.594 208.695 268.102 341.235C251.611 473.776 254.514 558.59 151.66 543.486C69.3773 531.402 82.0578 563.692 -80.4198 661.376C-318.86 780.685 -465.786 484.312 -404.049 363.04C-342.312 241.767 -389.242 173.805 -474.113 -133.428C-613.096 -636.549 -184.415 -235.467 -10.722 -438.475Z" stroke="#EAEAEA"/>
<path d="M-19.7402 -465.012C137.713 -649.04 263.82 -657.83 331.66 -622.155C835.011 -303.642 747.29 -119.46 592.791 -54.9237C438.292 9.61278 296.811 228.695 279.134 370.766C261.457 512.838 264.568 603.75 154.319 587.56C66.1191 574.607 79.7115 609.219 -94.4497 713.927C-350.035 841.816 -507.528 524.131 -441.351 394.138C-375.175 264.145 -425.479 191.296 -516.453 -138.03C-665.431 -677.33 -205.923 -247.406 -19.7402 -465.012Z" stroke="#EAEAEA"/>
<path d="M-28.7584 -491.549C139.257 -687.922 273.824 -697.301 346.215 -659.234C883.333 -319.353 789.728 -122.816 624.864 -53.9497C460.001 14.9161 309.029 248.695 290.166 400.297C271.303 551.9 274.623 648.911 156.977 631.635C62.8608 617.813 77.365 654.747 -108.48 766.479C-381.211 902.948 -549.269 563.95 -478.653 425.237C-408.037 286.524 -461.716 208.788 -558.793 -142.631C-717.765 -718.11 -227.431 -259.345 -28.7584 -491.549Z" stroke="#EAEAEA"/>
<path d="M-37.7764 -518.086C140.802 -726.805 283.829 -736.774 360.771 -696.313C931.656 -335.065 832.165 -126.172 656.938 -52.9763C481.71 20.219 321.247 268.695 301.198 429.828C281.148 590.961 284.678 694.072 159.636 675.709C59.6026 661.018 75.0187 700.274 -122.51 819.031C-412.387 964.078 -591.01 603.769 -515.955 456.336C-440.899 308.902 -497.953 226.279 -601.133 -147.233C-770.099 -758.891 -248.939 -271.284 -37.7764 -518.086Z" stroke="#EAEAEA"/>
<path d="M-46.7936 -544.623C142.347 -765.687 293.834 -776.246 375.327 -733.392C979.979 -350.776 874.604 -129.527 689.012 -52.0024C503.42 25.5223 333.465 288.695 312.23 459.359C290.995 630.023 294.733 739.233 162.296 719.784C56.3453 704.224 72.6733 745.802 -136.539 871.583C-443.562 1025.21 -632.75 643.589 -553.255 487.435C-473.761 331.28 -534.189 243.77 -643.472 -151.835C-822.432 -799.671 -270.446 -283.223 -46.7936 -544.623Z" stroke="#EAEAEA"/>
<path d="M-55.8118 -571.16C143.892 -804.57 303.838 -815.718 389.882 -770.471C1028.3 -366.488 917.042 -132.883 721.085 -51.0289C525.128 30.8252 345.683 308.695 323.262 488.89C300.841 669.085 304.788 784.393 164.954 763.858C53.087 747.43 70.3267 791.329 -150.569 924.135C-474.738 1086.34 -674.491 683.408 -590.557 518.533C-506.623 353.659 -570.426 261.261 -685.812 -156.436C-874.766 -840.451 -291.954 -295.162 -55.8118 -571.16Z" stroke="#EAEAEA"/>
</g>
</svg>
