<svg width="264" height="85" viewBox="0 0 264 85" fill="none" xmlns="http://www.w3.org/2000/svg">
<path d="M0.358237 21.7322C0.147648 22.2427 0.390821 22.8273 0.90138 23.0379L9.22142 26.4697C9.73198 26.6803 10.3166 26.4371 10.5272 25.9265C10.7378 25.416 10.4946 24.8314 9.98403 24.6208L2.58844 21.5703L5.63889 14.1747C5.84948 13.6642 5.60631 13.0796 5.09575 12.869C4.58519 12.6584 4.00058 12.9016 3.78999 13.4121L0.358237 21.7322ZM3.94662 22.1045C4.45905 21.8985 4.70746 21.3161 4.50146 20.8037C4.29546 20.2913 3.71306 20.0429 3.20063 20.2489L3.94662 22.1045ZM7.94129 18.4064C7.42431 18.6007 7.16271 19.1773 7.357 19.6942C7.55129 20.2112 8.12788 20.4728 8.64487 20.2785L7.94129 18.4064ZM13.3845 18.5546C13.9055 18.3712 14.1791 17.8003 13.9957 17.2793C13.8124 16.7584 13.2414 16.4847 12.7204 16.6681L13.3845 18.5546ZM17.4869 15.0429C16.9625 15.2161 16.6777 15.7816 16.8509 16.306C17.024 16.8305 17.5895 17.1153 18.114 16.9421L17.4869 15.0429ZM22.9018 15.4114C23.4294 15.2481 23.7247 14.688 23.5614 14.1604C23.3982 13.6328 22.8381 13.3375 22.3105 13.5008L22.9018 15.4114ZM27.1876 12.0402C26.6572 12.1938 26.3517 12.7484 26.5053 13.2789C26.659 13.8094 27.2136 14.1149 27.7441 13.9612L27.1876 12.0402ZM32.5652 12.6106C33.0983 12.4663 33.4135 11.9171 33.2691 11.384C33.1248 10.8509 32.5756 10.5358 32.0425 10.6801L32.5652 12.6106ZM36.9383 9.39997C36.4028 9.53509 36.0782 10.0787 36.2133 10.6142C36.3484 11.1497 36.8921 11.4743 37.4276 11.3392L36.9383 9.39997ZM42.3408 10.1442C42.8786 10.0183 43.2124 9.48031 43.0865 8.94257C42.9605 8.40483 42.4225 8.07099 41.8848 8.19692L42.3408 10.1442ZM46.7972 7.09007C46.2574 7.20693 45.9146 7.73925 46.0314 8.27903C46.1483 8.81881 46.6806 9.16164 47.2204 9.04477L46.7972 7.09007ZM52.1508 8.02076C52.6925 7.91302 53.0443 7.38656 52.9365 6.84489C52.8288 6.30322 52.3023 5.95145 51.7607 6.05919L52.1508 8.02076ZM56.7384 5.11268C56.195 5.21126 55.8344 5.7317 55.933 6.27512C56.0316 6.81853 56.552 7.17914 57.0954 7.08056L56.7384 5.11268ZM62.0411 6.2265C62.5861 6.13713 62.9554 5.62287 62.8661 5.07787C62.7767 4.53286 62.2624 4.16349 61.7174 4.25286L62.0411 6.2265ZM66.7392 3.47351C66.1927 3.55351 65.8146 4.06136 65.8946 4.60782C65.9746 5.15428 66.4825 5.53242 67.0289 5.45241L66.7392 3.47351ZM71.993 4.76915C72.5407 4.69856 72.9275 4.1973 72.857 3.64954C72.7864 3.10179 72.2851 2.71496 71.7374 2.78555L71.993 4.76915ZM76.7719 2.18151C76.223 2.24248 75.8274 2.73688 75.8884 3.28579C75.9494 3.8347 76.4438 4.23026 76.9927 4.16929L76.7719 2.18151ZM81.9912 3.65888C82.5412 3.60768 82.9454 3.12038 82.8942 2.57048C82.843 2.02057 82.3557 1.61629 81.8058 1.66749L81.9912 3.65888ZM86.8507 1.24361C86.3 1.28485 85.887 1.76475 85.9282 2.31549C85.9695 2.86624 86.4494 3.27927 87.0001 3.23802L86.8507 1.24361ZM92.022 2.90838C92.5734 2.87731 92.9952 2.40512 92.9642 1.85371C92.9331 1.3023 92.4609 0.880481 91.9095 0.911547L92.022 2.90838ZM96.9615 0.674395C96.4096 0.695083 95.979 1.15925 95.9997 1.71115C96.0204 2.26305 96.4845 2.69368 97.0364 2.67299L96.9615 0.674395ZM102.071 2.53271C102.624 2.52268 103.063 2.06691 103.053 1.51471C103.043 0.962518 102.587 0.523011 102.035 0.533043L102.071 2.53271ZM107.09 0.490745C106.537 0.489912 106.089 0.936951 106.088 1.48924C106.087 2.04152 106.534 2.48991 107.087 2.49074L107.09 0.490745ZM112.118 2.54902C112.67 2.56102 113.128 2.12315 113.14 1.57099C113.152 1.01884 112.714 0.561497 112.162 0.549492L112.118 2.54902ZM117.219 0.711609C116.668 0.68818 116.201 1.1165 116.178 1.66829C116.154 2.22007 116.583 2.68638 117.135 2.70981L117.219 0.711609ZM122.155 2.97626C122.706 3.01143 123.181 2.59313 123.216 2.04197C123.252 1.4908 122.833 1.01549 122.282 0.980323L122.155 2.97626ZM127.333 1.35773C126.783 1.31054 126.298 1.71837 126.251 2.26863C126.204 2.8189 126.612 3.30323 127.162 3.35042L127.333 1.35773ZM132.162 3.83551C132.711 3.89503 133.204 3.49818 133.264 2.94911C133.324 2.40004 132.927 1.90668 132.378 1.84716L132.162 3.83551ZM137.41 2.45125C136.863 2.37908 136.36 2.76445 136.288 3.312C136.216 3.85954 136.601 4.36193 137.149 4.4341L137.41 2.45125ZM142.118 5.14878C142.664 5.23391 143.175 4.86055 143.26 4.31487C143.345 3.76918 142.972 3.25781 142.426 3.17268L142.118 5.14878ZM147.427 4.0151C146.884 3.9167 146.363 4.27749 146.265 4.82093C146.167 5.36438 146.527 5.8847 147.071 5.9831L147.427 4.0151ZM151.996 6.93845C152.537 7.05042 153.066 6.70277 153.178 6.16195C153.29 5.62114 152.943 5.09195 152.402 4.97998L151.996 6.93845ZM157.357 6.07228C156.819 5.94644 156.281 6.28036 156.156 6.81811C156.03 7.35587 156.364 7.89382 156.901 8.01967L157.357 6.07228ZM161.768 9.22631C162.303 9.3663 162.849 9.04669 162.989 8.51244C163.129 7.97819 162.81 7.43162 162.275 7.29163L161.768 9.22631ZM167.169 8.64481C166.639 8.49038 166.084 8.79505 165.929 9.32531C165.775 9.85556 166.08 10.4106 166.61 10.565L167.169 8.64481ZM171.401 12.0325C171.927 12.2016 172.49 11.9124 172.659 11.3867C172.829 10.8609 172.539 10.2976 172.014 10.1285L171.401 12.0325ZM176.826 11.7516C176.305 11.5676 175.733 11.8406 175.55 12.3613C175.366 12.8821 175.639 13.4534 176.159 13.6373L176.826 11.7516ZM180.858 15.3743C181.374 15.5733 181.953 15.317 182.152 14.8018C182.351 14.2866 182.094 13.7077 181.579 13.5087L180.858 15.3743ZM186.289 15.4088C185.78 15.1945 185.194 15.4335 184.98 15.9426C184.765 16.4516 185.004 17.0379 185.513 17.2522L186.289 15.4088ZM190.1 19.2645C190.603 19.4941 191.196 19.2729 191.426 18.7706C191.655 18.2682 191.434 17.6749 190.932 17.4454L190.1 19.2645ZM195.518 19.627C195.023 19.3821 194.424 19.5849 194.179 20.0799C193.934 20.5749 194.137 21.1748 194.632 21.4196L195.518 19.627ZM199.086 23.7102C199.573 23.9704 200.179 23.7865 200.439 23.2993C200.699 22.8122 200.515 22.2064 200.028 21.9461L199.086 23.7102ZM204.47 24.41C203.991 24.1345 203.38 24.2991 203.104 24.7778C202.829 25.2564 202.993 25.8678 203.472 26.1433L204.47 24.41ZM207.772 28.711C208.241 29.0017 208.858 28.8567 209.149 28.3872C209.439 27.9176 209.294 27.3013 208.825 27.0105L207.772 28.711ZM213.1 29.7535C212.64 29.4478 212.019 29.5728 211.713 30.0327C211.407 30.4927 211.532 31.1134 211.992 31.4191L213.1 29.7535ZM216.118 34.2587C216.567 34.5792 217.192 34.4743 217.512 34.0246C217.833 33.5748 217.728 32.9504 217.278 32.6299L216.118 34.2587ZM221.366 35.6446C220.927 35.3096 220.3 35.394 219.965 35.8331C219.63 36.2722 219.714 36.8997 220.153 37.2347L221.366 35.6446ZM224.084 40.336C224.512 40.6851 225.142 40.6212 225.491 40.1932C225.84 39.7653 225.776 39.1353 225.348 38.7862L224.084 40.336ZM229.233 42.0617C228.817 41.6989 228.185 41.7423 227.822 42.1586C227.459 42.575 227.503 43.2067 227.919 43.5695L229.233 42.0617ZM231.638 46.9178C232.043 47.2939 232.675 47.2709 233.051 46.8665C233.428 46.4621 233.405 45.8293 233 45.4532L231.638 46.9178ZM236.668 48.9759C236.276 48.587 235.643 48.5896 235.254 48.9817C234.865 49.3739 234.868 50.007 235.26 50.3959L236.668 48.9759ZM238.753 53.9718C239.132 54.3729 239.765 54.3904 240.166 54.0107C240.568 53.6311 240.585 52.9982 240.205 52.5971L238.753 53.9718ZM243.649 56.3521C243.282 55.9393 242.65 55.9019 242.237 56.2688C241.824 56.6356 241.787 57.2677 242.154 57.6805L243.649 56.3521ZM245.409 61.4607C245.763 61.8847 246.394 61.9414 246.818 61.5874C247.242 61.2334 247.299 60.6028 246.945 60.1789L245.409 61.4607ZM250.16 64.1521C249.819 63.7176 249.191 63.6416 248.756 63.9825C248.322 64.3234 248.246 64.952 248.587 65.3865L250.16 64.1521ZM251.598 69.3448C251.926 69.7892 252.552 69.8836 252.996 69.5557C253.441 69.2278 253.535 68.6017 253.207 68.1573L251.598 69.3448ZM256.178 72.3099C255.864 71.8561 255.241 71.7435 254.787 72.0582C254.333 72.373 254.22 72.9961 254.535 73.4499L256.178 72.3099ZM257.317 77.5846C257.619 78.0471 258.239 78.1773 258.701 77.8754C259.164 77.5735 259.294 76.9539 258.992 76.4914L257.317 77.5846ZM261.712 80.7875C261.423 80.3169 260.807 80.1695 260.336 80.4585C259.866 80.7474 259.718 81.3632 260.007 81.8339L261.712 80.7875ZM1.66675 23.0368C2.41478 22.7256 3.17484 22.4148 3.94662 22.1045L3.20063 20.2489C2.42155 20.5621 1.65412 20.8759 0.898626 21.1902L1.66675 23.0368ZM8.64487 20.2785C10.1858 19.6994 11.7663 19.1242 13.3845 18.5546L12.7204 16.6681C11.0892 17.2423 9.49551 17.8223 7.94129 18.4064L8.64487 20.2785ZM18.114 16.9421C19.6797 16.4252 21.2761 15.9145 22.9018 15.4114L22.3105 13.5008C20.673 14.0076 19.0646 14.5221 17.4869 15.0429L18.114 16.9421ZM27.7441 13.9612C29.327 13.5027 30.9345 13.0521 32.5652 12.6106L32.0425 10.6801C30.4006 11.1247 28.7818 11.5784 27.1876 12.0402L27.7441 13.9612ZM37.4276 11.3392C39.0453 10.931 40.6834 10.5324 42.3408 10.1442L41.8848 8.19692C40.2162 8.58766 38.567 8.98902 36.9383 9.39997L37.4276 11.3392ZM47.2204 9.04477C48.8475 8.69249 50.4913 8.35085 52.1508 8.02076L51.7607 6.05919C50.09 6.39149 48.4352 6.73542 46.7972 7.09007L47.2204 9.04477ZM57.0954 7.08056C58.7306 6.78394 60.3794 6.49898 62.0411 6.2265L61.7174 4.25286C60.0445 4.52718 58.3846 4.81406 56.7384 5.11268L57.0954 7.08056ZM67.0289 5.45241C68.6727 5.21176 70.3276 4.98375 71.993 4.76915L71.7374 2.78555C70.0605 3.00163 68.3941 3.23121 66.7392 3.47351L67.0289 5.45241ZM76.9927 4.16929C78.65 3.98521 80.3164 3.81483 81.9912 3.65888L81.8058 1.66749C80.1191 1.82456 78.4408 1.99614 76.7719 2.18151L76.9927 4.16929ZM87.0001 3.23802C88.667 3.11318 90.3413 3.00307 92.022 2.90838L91.9095 0.911547C90.2163 1.00694 88.5298 1.11786 86.8507 1.24361L87.0001 3.23802ZM97.0364 2.67299C98.7094 2.61028 100.388 2.5633 102.071 2.53271L102.035 0.533043C100.339 0.563864 98.6472 0.611208 96.9615 0.674395L97.0364 2.67299ZM107.087 2.49074C108.76 2.49327 110.438 2.51248 112.118 2.54902L112.162 0.549492C110.467 0.512654 108.776 0.493291 107.09 0.490745L107.087 2.49074ZM117.135 2.70981C118.806 2.78077 120.479 2.86938 122.155 2.97626L122.282 0.980323C120.592 0.872518 118.905 0.783161 117.219 0.711609L117.135 2.70981ZM127.162 3.35042C128.828 3.49328 130.495 3.65477 132.162 3.83551L132.378 1.84716C130.695 1.66478 129.014 1.50185 127.333 1.35773L127.162 3.35042ZM137.149 4.4341C138.806 4.65251 140.462 4.89054 142.118 5.14878L142.426 3.17268C140.755 2.91196 139.083 2.67169 137.41 2.45125L137.149 4.4341ZM147.071 5.9831C148.715 6.28075 150.357 6.599 151.996 6.93845L152.402 4.97998C150.746 4.6371 149.087 4.31568 147.427 4.0151L147.071 5.9831ZM156.901 8.01967C158.527 8.40012 160.15 8.80214 161.768 9.22631L162.275 7.29163C160.639 6.86294 159 6.45669 157.357 6.07228L156.901 8.01967ZM166.61 10.565C168.212 11.0315 169.809 11.5205 171.401 12.0325L172.014 10.1285C170.403 9.61078 168.788 9.1164 167.169 8.64481L166.61 10.565ZM176.159 13.6373C177.732 14.1928 179.298 14.7716 180.858 15.3743L181.579 13.5087C180.001 12.8989 178.416 12.3134 176.826 11.7516L176.159 13.6373ZM185.513 17.2522C187.049 17.8986 188.579 18.5692 190.1 19.2645L190.932 17.4454C189.391 16.7417 187.844 16.063 186.289 15.4088L185.513 17.2522ZM194.632 21.4196C196.124 22.1582 197.609 22.9215 199.086 23.7102L200.028 21.9461C198.533 21.1475 197.03 20.3747 195.518 19.627L194.632 21.4196ZM203.472 26.1433C204.914 26.9737 206.348 27.8295 207.772 28.711L208.825 27.0105C207.382 26.1177 205.931 25.251 204.47 24.41L203.472 26.1433ZM211.992 31.4191C213.378 32.3398 214.753 33.2862 216.118 34.2587L217.278 32.6299C215.896 31.6447 214.503 30.6861 213.1 29.7535L211.992 31.4191ZM220.153 37.2347C221.474 38.2425 222.785 39.2761 224.084 40.336L225.348 38.7862C224.032 37.7126 222.705 36.6655 221.366 35.6446L220.153 37.2347ZM227.919 43.5695C229.17 44.6598 230.41 45.7757 231.638 46.9178L233 45.4532C231.756 44.2964 230.5 43.1661 229.233 42.0617L227.919 43.5695ZM235.26 50.3959C236.436 51.5624 237.6 52.7542 238.753 53.9718L240.205 52.5971C239.038 51.3641 237.859 50.1572 236.668 48.9759L235.26 50.3959ZM242.154 57.6805C243.251 58.9156 244.336 60.1756 245.409 61.4607L246.945 60.1789C245.858 58.878 244.76 57.6026 243.649 56.3521L242.154 57.6805ZM248.587 65.3865C249.603 66.6817 250.607 68.001 251.598 69.3448L253.207 68.1573C252.204 66.7978 251.188 65.4628 250.16 64.1521L248.587 65.3865ZM254.535 73.4499C255.475 74.8045 256.402 76.1826 257.317 77.5846L258.992 76.4914C258.067 75.0738 257.129 73.6801 256.178 72.3099L254.535 73.4499ZM260.007 81.8339C260.449 82.554 260.888 83.2801 261.324 84.0121L263.043 82.9893C262.602 82.2494 262.159 81.5155 261.712 80.7875L260.007 81.8339Z" fill="#666666"/>
</svg>
